<?xml version="1.0" encoding="UTF-8"?>
<svg width="54px" height="64px" viewBox="0 0 54 64" version="1.1" xmlns="http://www.w3.org/2000/svg" xmlns:xlink="http://www.w3.org/1999/xlink">
    <title>checklist</title>
    <g id="Assessments" stroke="none" stroke-width="1" fill="none" fill-rule="evenodd">
        <g id="CBP-assessment-scenarios" transform="translate(-179.000000, -56.000000)" fill-rule="nonzero">
            <g id="checklist" transform="translate(179.000000, 56.000000)">
                <path d="M46.6823061,7.20997988 L46.6823061,60.9892958 C46.6823061,62.6517505 45.3357753,64 43.6754398,64 L3.00686626,64 C1.34653079,64 0,62.6517505 0,60.9892958 L0,7.20997988 C0,5.54752515 1.34653079,4.19927565 3.00686626,4.19927565 L3.84410747,4.19927565 L23.3417961,5.51919517 L42.8394847,4.19927565 L43.6754398,4.19927565 C45.3359039,4.19927565 46.6823061,5.54752515 46.6823061,7.20997988 Z" id="Path" fill="#F07281"></path>
                <path d="M46.6824347,7.20997988 L46.6824347,60.9892958 C46.6824347,62.6517505 45.3359039,64 43.6755684,64 L41.2718759,64 C42.9322114,64 44.2787422,62.6517505 44.2787422,60.9892958 L44.2787422,29.6215694 L39.1382613,34.7686117 L39.1382613,25.7828571 L43.5392434,21.3762575 C44.0138087,20.9010865 44.2787422,20.2585111 44.2787422,19.5876056 L44.2787422,7.20997988 C44.2787422,5.75613682 43.3064621,4.54181087 41.9354957,4.25979879 L42.8383272,4.19927565 L43.6755684,4.19927565 C45.3360325,4.19927565 46.6824347,5.54752515 46.6824347,7.20997988 L46.6824347,7.20997988 Z" id="Path" fill="#EB5569"></path>
                <path d="M42.8394847,4.19927565 L42.8394847,58.9418109 C42.8394847,59.6101408 42.298043,60.1509859 41.6318511,60.1509859 L5.0517411,60.1509859 C4.38426309,60.1509859 3.84410747,59.6101408 3.84410747,58.9418109 L3.84410747,4.19927565 L9.64833678,4.19927565 L23.3417961,4.79407646 L37.0343551,4.19927565 L42.8394847,4.19927565 Z" id="Path" fill="#EAF6FF"></path>
                <path d="M42.8394847,22.0767807 L42.8389703,22.0772958 L42.8389703,4.1995332 L39.7895346,4.1995332 L39.7895346,23.7181167 C39.7895346,24.6226157 39.4307169,25.4901569 38.7919186,26.1297706 L23.386166,41.5562173 L23.0350649,41.9064789 C22.3161435,42.6263179 21.7965652,43.5212877 21.5252013,44.5025352 L21.0488355,48.1730704 C20.9935339,48.5989215 21.3247007,48.9763541 21.75361,48.9763541 L24.0468278,48.9763541 C25.0268244,48.7072193 26.8034219,47.1191952 27.5223433,46.3993561 L27.8734445,46.0490946 L39.7896632,34.1166358 L39.7896632,58.9420684 C39.7896632,59.6098833 39.2489932,60.1512435 38.5820296,60.1512435 L41.6313366,60.1512435 C42.2983002,60.1512435 42.8389703,59.6098833 42.8389703,58.9420684 L42.8389703,31.0630503 L42.8394847,31.0625352 L42.8394847,22.0767807 Z" id="Path" fill="#C8EFFE"></path>
                <g id="Group" transform="translate(22.314857, 20.414068)">
                    <path d="M13.0416715,1.93158954 L0.9645636,1.93158954 C0.431867276,1.93158954 -7.3105457e-15,1.49917103 -7.3105457e-15,0.965794769 C-7.3105457e-15,0.432418511 0.431867276,3.65993844e-15 0.9645636,3.65993844e-15 L13.0416715,3.65993844e-15 C13.5744965,3.65993844e-15 14.0062351,0.432418511 14.0062351,0.965794769 C14.0062351,1.49917103 13.5744965,1.93158954 13.0416715,1.93158954 Z" id="Path" fill="#99E6FC"></path>
                    <path d="M14.0055921,14.8799356 C14.0055921,15.4130543 13.5747537,15.8457304 13.0410285,15.8457304 L0.964692209,15.8457304 C0.432253101,15.8457304 0.00012860848,15.4130543 0.00012860848,14.8799356 C0.00012860848,14.3468169 0.432253101,13.9141408 0.964692209,13.9141408 L13.0410285,13.9141408 C13.5747537,13.9141408 14.0055921,14.3468169 14.0055921,14.8799356 Z" id="Path" fill="#99E6FC"></path>
                    <path d="M14.0055921,14.8799356 C14.0055921,15.4130543 13.5747537,15.8457304 13.0410285,15.8457304 L6.36110403,15.8457304 L8.29023123,13.9141408 L13.0410285,13.9141408 C13.5747537,13.9141408 14.0055921,14.3468169 14.0055921,14.8799356 Z" id="Path" fill="#62DBFB"></path>
                </g>
                <path d="M33.5328607,4.1995332 L23.3417961,4.79407646 L13.1497027,4.1995332 L13.1497027,1.33575855 C13.1497027,0.598020121 13.747089,4.4408921e-16 14.483887,4.4408921e-16 L32.1988049,4.4408921e-16 C32.9356029,4.4408921e-16 33.5328607,0.598020121 33.5328607,1.33575855 L33.5328607,4.1995332 Z" id="Path" fill="#0268B4"></path>
                <path d="M32.1988049,0 L29.1494978,0 C29.8862958,0 30.4835536,0.598020121 30.4835536,1.33575855 L30.4835536,4.1995332 L30.80829,4.35843863 L33.5328607,4.1995332 L33.5328607,1.33575855 C33.5328607,0.598020121 32.9356029,0 32.1988049,0 Z" id="Path" fill="#015A9A"></path>
                <path d="M16.373017,25.8396459 L10.6471102,25.8396459 C9.76832849,25.8396459 9.05596612,25.1263742 9.05596612,24.2464708 L9.05596612,18.5132555 C9.05596612,17.6333521 9.76832849,16.9200805 10.6471102,16.9200805 L16.373017,16.9200805 C17.2517987,16.9200805 17.9641611,17.6333521 17.9641611,18.5132555 L17.9641611,24.2464708 C17.9641611,25.1263742 17.2517987,25.8396459 16.373017,25.8396459 Z" id="Path" fill="#C8EFFE"></path>
                <path d="M16.373017,16.9200805 L13.3237099,16.9200805 C14.2024917,16.9200805 14.914854,17.6333521 14.914854,18.5132555 L14.914854,24.2464708 C14.914854,25.1263742 14.2024917,25.8396459 13.3237099,25.8396459 L16.3731456,25.8396459 C17.2519273,25.8396459 17.9642897,25.1263742 17.9642897,24.2464708 L17.9642897,18.5132555 C17.9641611,17.6333521 17.2517987,16.9200805 16.373017,16.9200805 L16.373017,16.9200805 Z" id="Path" fill="#99E6FC"></path>
                <path d="M16.373017,39.7534004 L10.6471102,39.7534004 C9.76832849,39.7534004 9.05596612,39.0401288 9.05596612,38.1602254 L9.05596612,32.4270101 C9.05596612,31.5471066 9.76832849,30.833835 10.6471102,30.833835 L16.373017,30.833835 C17.2517987,30.833835 17.9641611,31.5471066 17.9641611,32.4270101 L17.9641611,38.1602254 C17.9641611,39.0401288 17.2517987,39.7534004 16.373017,39.7534004 Z" id="Path" fill="#C8EFFE"></path>
                <path d="M16.373017,30.833835 L13.3237099,30.833835 C14.2024917,30.833835 14.914854,31.5471066 14.914854,32.4270101 L14.914854,38.1602254 C14.914854,39.0401288 14.2024917,39.7534004 13.3237099,39.7534004 L16.3731456,39.7534004 C17.2519273,39.7534004 17.9642897,39.0401288 17.9642897,38.1602254 L17.9642897,32.4270101 C17.9641611,31.5471066 17.2517987,30.833835 16.373017,30.833835 L16.373017,30.833835 Z" id="Path" fill="#99E6FC"></path>
                <path d="M16.373017,53.6671549 L10.6471102,53.6671549 C9.76832849,53.6671549 9.05596612,52.9538833 9.05596612,52.0739799 L9.05596612,46.3407646 C9.05596612,45.4608612 9.76832849,44.7475895 10.6471102,44.7475895 L16.373017,44.7475895 C17.2517987,44.7475895 17.9641611,45.4608612 17.9641611,46.3407646 L17.9641611,52.0739799 C17.9641611,52.9538833 17.2517987,53.6671549 16.373017,53.6671549 Z" id="Path" fill="#C8EFFE"></path>
                <path d="M16.373017,44.7475895 L13.3237099,44.7475895 C14.2024917,44.7475895 14.914854,45.4608612 14.914854,46.3407646 L14.914854,52.0739799 C14.914854,52.9538833 14.2024917,53.6671549 13.3237099,53.6671549 L16.3731456,53.6671549 C17.2519273,53.6671549 17.9642897,52.9538833 17.9642897,52.0739799 L17.9642897,46.3407646 C17.9641611,45.4608612 17.2517987,44.7475895 16.373017,44.7475895 Z" id="Path" fill="#99E6FC"></path>
                <g id="Group" transform="translate(23.510698, 18.448982)">
                    <polygon id="Path" fill="#0268B4" points="26.028131 8.95898595 7.41205349 27.6001127 5.22699541 26.7347606 4.12224857 26.2982214 2.92490362 23.1072354 21.539695 4.46610868 24.8346443 5.59802015 25.2281862 6.70675255"></polygon>
                    <polygon id="Path" fill="#015A9A" points="26.028131 8.95898595 7.41205349 27.6001127 5.22699541 26.7347606 25.2281862 6.70675255"></polygon>
                    <path d="M29.5595912,5.423662 L26.0278738,8.95988735 L21.5403381,4.46662377 L25.0720555,0.930398421 C26.3114555,-0.31058347 28.3201913,-0.309682062 29.558691,0.930398421 C30.1784552,1.55095375 30.4882731,2.36376663 30.4891733,3.17748092 C30.4891733,3.99029379 30.1792269,4.80310667 29.5595912,5.423662 Z" id="Path" fill="#0593FC"></path>
                    <path d="M29.558691,0.930398421 C28.5381827,-0.0914124441 26.9957812,-0.269762545 25.7907197,0.392643894 C26.0481939,0.534165021 26.2912639,0.712000031 26.5093839,0.930398421 C27.1291482,1.55095375 27.438966,2.36376663 27.4398663,3.17748092 C27.4398663,3.99029379 27.1300484,4.80310667 26.5102842,5.423662 L24.5033488,7.43315898 L26.0280024,8.95975858 L29.5597198,5.42353323 C30.1794841,4.8029779 30.4893019,3.99016502 30.4893019,3.17735214 C30.4882731,2.36376663 30.1783266,1.55095375 29.558691,0.930398421 L29.558691,0.930398421 Z" id="Path" fill="#0181FA"></path>
                    <path d="M7.41218209,27.6001127 L7.06108094,27.9503743 C6.34228815,28.6700845 5.44794478,29.1922576 4.46769094,29.4616499 L0.679013729,30.5075413 C0.278012488,30.6182857 -0.090579416,30.2492234 0.0200238769,29.8477103 L1.06458195,26.0541972 C1.33491698,25.0726922 1.85513828,24.1772073 2.57393107,23.457497 L2.92503222,23.1072354 L7.41218209,27.6001127 Z" id="Path" fill="#FFF3BE"></path>
                    <path d="M4.36274642,27.6001127 L4.01164527,27.9503743 C3.29285248,28.6700845 2.39850911,29.1922576 1.41825527,29.4616499 L0.0198952684,29.8477103 C-0.0907080245,30.2492234 0.277883879,30.6182857 0.67888512,30.5075413 L4.46756233,29.4616499 C5.44781617,29.1922576 6.34215954,28.6700845 7.06095233,27.9503743 L7.41205349,27.6001127 L5.88727135,26.0733843 L4.36274642,27.6001127 Z" id="Path" fill="#FFEC9C"></path>
                </g>
                <path d="M33.9325758,12.2207807 C33.6947787,12.2207807 33.455567,12.1999195 33.2171268,12.1574245 L24.2982574,10.5708169 C23.6572727,10.4568531 23.0068996,10.4568531 22.3655291,10.5710744 L13.4664653,12.1563944 C12.2779944,12.3679678 11.0654736,12.0442334 10.1398784,11.267992 C9.21454038,10.4917505 8.68377318,9.35327163 8.68377318,8.1444829 L8.68377318,5.16532797 C8.68377318,4.63195171 9.11564046,4.1995332 9.64833678,4.1995332 L37.0342265,4.1995332 C37.5670515,4.1995332 37.9987901,4.63195171 37.9987901,5.16532797 L37.9987901,8.14525553 C37.9987901,9.35391549 37.4681515,10.4922656 36.5429421,11.268507 C35.803572,11.8891911 34.8802917,12.2207807 33.9325758,12.2207807 L33.9325758,12.2207807 Z M23.3325363,8.55372233 C23.7680046,8.55372233 24.2033443,8.59222535 24.635726,8.66910262 L33.5545955,10.2557103 C34.1802757,10.3670986 34.8174022,10.1966036 35.3041853,9.78813682 C35.7908397,9.37979879 36.0699201,8.78100604 36.0699201,8.14538431 L36.0699201,6.13112274 L10.6131576,6.13112274 L10.6131576,8.14435412 C10.6131576,8.7802334 10.892238,9.37902616 11.3790211,9.78736419 C11.8658042,10.1955734 12.503445,10.3659396 13.1287395,10.2545513 L22.0276746,8.66923139 C22.4605708,8.59222535 22.8965535,8.55372233 23.3325363,8.55372233 L23.3325363,8.55372233 Z" id="Shape" fill="#015A9A"></path>
                <path d="M13.77011,23.2281368 C13.5233103,23.2281368 13.276382,23.1338753 13.0880992,22.9452233 L11.7222771,21.5776579 C11.3455829,21.2004829 11.3455829,20.5889416 11.7222771,20.2118954 C12.0989714,19.8347203 12.709733,19.8347203 13.0862987,20.2118954 L13.7699814,20.8964507 L18.4611043,16.1994688 C18.8377985,15.8222938 19.4485602,15.822165 19.8251258,16.1994688 C20.20182,16.5766439 20.20182,17.1881851 19.8251258,17.5652314 L14.4519921,22.9450946 C14.2638379,23.1338753 14.0169096,23.2281368 13.77011,23.2281368 Z" id="Path" fill="#4FC123"></path>
                <path d="M13.77011,37.2187686 C13.5233103,37.2187686 13.276382,37.124507 13.0880992,36.9358551 L11.7222771,35.5682897 C11.3455829,35.1911147 11.3455829,34.5795734 11.7222771,34.2025272 C12.0989714,33.8253521 12.709733,33.8253521 13.0862987,34.2025272 L13.7699814,34.8870825 L18.4611043,30.1901006 C18.8377985,29.8129256 19.4485602,29.8127968 19.8251258,30.1901006 C20.20182,30.5672757 20.20182,31.1788169 19.8251258,31.5558632 L14.4519921,36.9357264 C14.2638379,37.124507 14.0169096,37.2187686 13.77011,37.2187686 L13.77011,37.2187686 Z" id="Path" fill="#4FC123"></path>
            </g>
        </g>
    </g>
</svg>