<?xml version="1.0" encoding="UTF-8"?>
<svg width="24px" height="24px" viewBox="0 0 24 24" version="1.1" xmlns="http://www.w3.org/2000/svg" xmlns:xlink="http://www.w3.org/1999/xlink">
    <title>Icons/Hubs/Assessment</title>
    <g id="Icons/Hubs/Assessment" stroke="none" stroke-width="1" fill="none" fill-rule="evenodd">
        <rect id="Size" fill="#D8D8D8" opacity="0" x="0" y="0" width="24" height="24"></rect>
        <path d="M10,19 C10.55,19 11,19.45 11,20 L11,20 L10.9932398,20.116199 C10.9352041,20.6119898 10.5107143,21 10,21 L10,21 L5,21 C4.45,21 4,20.55 4,20 L4,20 L4.0067602,19.883801 C4.06479592,19.3880102 4.48928571,19 5,19 L5,19 Z M10,15 C10.55,15 11,15.45 11,16 L11,16 L10.9932398,16.116199 C10.9352041,16.6119898 10.5107143,17 10,17 L10,17 L5,17 C4.45,17 4,16.55 4,16 L4,16 L4.0067602,15.883801 C4.06479592,15.3880102 4.48928571,15 5,15 L5,15 Z M19,11 C19.55,11 20,11.45 20,12 L20,12 L19.9932398,12.116199 C19.9352041,12.6119898 19.5107143,13 19,13 L19,13 L5,13 C4.45,13 4,12.55 4,12 L4,12 L4.0067602,11.883801 C4.06479592,11.3880102 4.48928571,11 5,11 L5,11 Z M19,7 C19.5107143,7 19.9352041,7.3880102 19.9932398,7.88380102 L20,8 C20,8.55 19.55,9 19,9 L5,9 C4.48928571,9 4.06479592,8.6119898 4.0067602,8.11619898 L4,8 C4,7.45 4.45,7 5,7 L19,7 Z M19,3 C19.55,3 20,3.45 20,4 L20,4 L19.9932398,4.11619898 C19.9352041,4.6119898 19.5107143,5 19,5 L19,5 L5,5 C4.45,5 4,4.55 4,4 L4,4 L4.0067602,3.88380102 C4.06479592,3.3880102 4.48928571,3 5,3 L5,3 Z" id="Combined-Shape" fill="#000" fill-opacity=".4"></path>
        <path d="M15.41,18.17 L14.7,17.46 C14.31,17.07 13.68,17.07 13.29,17.46 L13.29,17.46 C12.9,17.85 12.9,18.48 13.29,18.87 L14.71,20.29 C15.1,20.68 15.73,20.68 16.12,20.29 L19.29,17.12 C19.68,16.73 19.68,16.1 19.29,15.71 L19.29,15.71 C18.9,15.32 18.27,15.32 17.88,15.71 L15.41,18.17 Z" id="Path" fill="#000" fill-opacity=".4"></path>
    </g>
</svg>