<?xml version="1.0" encoding="UTF-8"?>
<svg width="380px" height="84px" viewBox="0 0 380 84" version="1.1" xmlns="http://www.w3.org/2000/svg" xmlns:xlink="http://www.w3.org/1999/xlink">
    <title>Browse by competency Copy</title>
    <defs>
        <rect id="path-1" x="0" y="0" width="380" height="84" rx="8"></rect>
        <rect id="path-3" x="0" y="0" width="380" height="84"></rect>
        <path d="M55.2607039,7.87914692 L51.7062015,11.4336493 L42.2275285,1.9549763 C39.6208935,-0.651658768 35.3554906,-0.651658768 32.7488556,1.9549763 L23.2701826,11.4336493 L19.7156802,7.87914692 C16.445538,4.60900474 11.1374811,4.60900474 7.86733897,7.87914692 C4.59719679,11.1492891 4.59719679,16.457346 7.86733897,19.7274882 L11.4218413,23.2819905 L1.94316835,32.7606635 C-0.663466717,35.3672986 -0.639770035,39.6090047 1.96686504,42.2156398 L10.9716044,51.2203791 L14.5024101,47.6895735 C18.0332157,44.1587678 23.7678129,44.1587678 27.2986186,47.6895735 C30.8294243,51.2203791 30.8294243,56.9549763 27.2986186,60.485782 L23.7441162,64.0402844 L32.7488556,73.0450237 C35.3554906,75.6516588 39.6208935,75.6516588 42.2275285,73.0450237 L51.2322679,64.0402844 L47.6777655,60.485782 C44.1469598,56.9549763 44.1469598,51.2203791 47.6777655,47.6895735 C51.2085712,44.1587678 56.9431684,44.1587678 60.473974,47.6895735 L64.0284764,51.2440758 L73.0332157,42.2393365 C75.6398508,39.6327014 75.6398508,35.3672986 73.0332157,32.7606635 L63.5545428,23.2819905 L67.1090451,19.7274882 C70.3791873,16.457346 70.3791873,11.1492891 67.1090451,7.87914692 C63.838903,4.60900474 58.5308461,4.60900474 55.2607039,7.87914692 Z" id="path-5"></path>
        <filter x="-16.7%" y="-15.3%" width="133.3%" height="133.3%" filterUnits="objectBoundingBox" id="filter-6">
            <feOffset dx="0" dy="1" in="SourceAlpha" result="shadowOffsetOuter1"></feOffset>
            <feGaussianBlur stdDeviation="4" in="shadowOffsetOuter1" result="shadowBlurOuter1"></feGaussianBlur>
            <feColorMatrix values="0 0 0 0 0   0 0 0 0 0.454901961   0 0 0 0 0.71372549  0 0 0 0.24 0" type="matrix" in="shadowBlurOuter1"></feColorMatrix>
        </filter>
        <path d="M98.2607039,51.8791469 L94.7062015,55.4336493 L85.2275285,45.9549763 C82.6208935,43.3483412 78.3554906,43.3483412 75.7488556,45.9549763 L66.2701826,55.4336493 L62.7156802,51.8791469 C59.445538,48.6090047 54.1374811,48.6090047 50.867339,51.8791469 C47.5971968,55.1492891 47.5971968,60.457346 50.867339,63.7274882 L54.4218413,67.2819905 L44.9431684,76.7606635 C42.3365333,79.3672986 42.36023,83.6090047 44.966865,86.2156398 L53.9716044,95.2203791 L57.5024101,91.6895735 C61.0332157,88.1587678 66.7678129,88.1587678 70.2986186,91.6895735 C73.8294243,95.2203791 73.8294243,100.954976 70.2986186,104.485782 L66.7441162,108.040284 L75.7488556,117.045024 C78.3554906,119.651659 82.6208935,119.651659 85.2275285,117.045024 L94.2322679,108.040284 L90.6777655,104.485782 C87.1469598,100.954976 87.1469598,95.2203791 90.6777655,91.6895735 C94.2085712,88.1587678 99.9431684,88.1587678 103.473974,91.6895735 L107.028476,95.2440758 L116.033216,86.2393365 C118.639851,83.6327014 118.639851,79.3672986 116.033216,76.7606635 L106.554543,67.2819905 L110.109045,63.7274882 C113.379187,60.457346 113.379187,55.1492891 110.109045,51.8791469 C106.838903,48.6090047 101.530846,48.6090047 98.2607039,51.8791469 Z" id="path-7"></path>
        <filter x="-16.7%" y="-15.3%" width="133.3%" height="133.3%" filterUnits="objectBoundingBox" id="filter-8">
            <feOffset dx="0" dy="1" in="SourceAlpha" result="shadowOffsetOuter1"></feOffset>
            <feGaussianBlur stdDeviation="4" in="shadowOffsetOuter1" result="shadowBlurOuter1"></feGaussianBlur>
            <feColorMatrix values="0 0 0 0 0   0 0 0 0 0.454901961   0 0 0 0 0.71372549  0 0 0 0.24 0" type="matrix" in="shadowBlurOuter1"></feColorMatrix>
        </filter>
    </defs>
    <g id="Browse" stroke="none" stroke-width="1" fill="none" fill-rule="evenodd">
        <g id="Group">
            <mask id="mask-2" fill="white">
                <use xlink:href="#path-1"></use>
            </mask>
            <use id="bg" fill="#FFFFFF" xlink:href="#path-1"></use>
            <g id="Illustrations/Mobile/topics_bg" mask="url(#mask-2)">
                <mask id="mask-4" fill="white">
                    <use xlink:href="#path-3"></use>
                </mask>
                <use id="bg" fill="#FFFFFF" xlink:href="#path-3"></use>
                <g id="Group-11" opacity="0.600000024" mask="url(#mask-4)" fill-rule="nonzero">
                    <g transform="translate(294.451471, -30.185115)">
                        <g id="Path" opacity="0.2">
                            <use fill="black" fill-opacity="1" filter="url(#filter-6)" xlink:href="#path-5"></use>
                            <use fill="#0074B6" xlink:href="#path-5"></use>
                        </g>
                        <g id="Path-Copy" opacity="0.08" transform="translate(80.494096, 81.500000) rotate(-270.000000) translate(-80.494096, -81.500000) ">
                            <use fill="black" fill-opacity="1" filter="url(#filter-8)" xlink:href="#path-7"></use>
                            <use fill="#0074B6" xlink:href="#path-7"></use>
                        </g>
                    </g>
                </g>
            </g>
        </g>
    </g>
</svg>