<?xml version="1.0" encoding="UTF-8"?>
<svg width="32px" height="32px" viewBox="0 0 32 32" version="1.1" xmlns="http://www.w3.org/2000/svg" xmlns:xlink="http://www.w3.org/1999/xlink">
    <title>Icons/others/Coin</title>
    <g id="Icons/others/Coin" stroke="none" stroke-width="1" fill="none" fill-rule="evenodd">
        <path d="M15.9932692,2 C23.7067308,2 29.9798077,8.27307692 29.9798077,15.9865385 C29.9798077,23.7 23.7067308,29.9798077 15.9932692,29.9798077 C8.27980769,29.9798077 2,23.7067308 2,15.9932692 C2,8.27980769 8.27980769,2 15.9932692,2 Z M15.9932692,4.24807692 C9.51826923,4.24807692 4.25480769,9.51153846 4.25480769,15.9865385 C4.25480769,22.4615385 9.51826923,27.725 15.9932692,27.725 C22.4682692,27.725 27.7317308,22.4615385 27.7317308,15.9865385 C27.7317308,9.51153846 22.4682692,4.24807692 15.9932692,4.24807692 Z M15.9932692,5.59423077 C21.7211538,5.59423077 26.3855769,10.2586538 26.3855769,15.9865385 C26.3855769,21.7144231 21.7211538,26.3788462 15.9932692,26.3788462 C10.2653846,26.3788462 5.60096154,21.7144231 5.60096154,15.9865385 C5.60096154,10.2586538 10.2653846,5.59423077 15.9932692,5.59423077 Z M19.594,12 L13.014,12 L13.014,13.113 L14.4,13.113 C15.0486667,13.113 15.5585,13.2308333 15.9295,13.4665 C16.254125,13.6727083 16.4742422,13.9548411 16.5898516,14.3128984 L16.633,14.471 L13,14.471 L13,15.542 L16.598,15.542 C16.4766667,15.948 16.2281667,16.2758333 15.8525,16.5255 C15.5237917,16.7439583 15.0995078,16.8668411 14.5796484,16.8941484 L14.351,16.9 L13.014,16.9 L13.014,17.929 L14.225,17.929 C14.4163333,17.929 14.5586667,17.9535 14.652,18.0025 C14.722,18.03925 14.7880625,18.0950313 14.8501875,18.1698438 L14.911,18.251 L17.389,21.737 C17.501,21.917 17.661,22.0198571 17.869,22.0455714 L17.977,22.052 L19.307,22.052 L16.479,18.139 C16.325,17.9103333 16.136,17.7376667 15.912,17.621 C16.5046667,17.4483333 16.9818333,17.18 17.3435,16.816 C17.6535,16.504 17.8666429,16.1474286 17.9829286,15.7462857 L18.033,15.542 L19.594,15.542 L19.594,14.471 L18.047,14.471 C17.9956667,14.177 17.8906667,13.9121667 17.732,13.6765 C17.6050667,13.4879667 17.4348267,13.3210867 17.22128,13.17586 L17.053,13.071 L19.594,13.071 L19.594,12 Z" id="Combined-Shape" fill="#F69953"></path>
    </g>
</svg>