<?xml version="1.0" encoding="UTF-8"?>
<svg width="412px" height="127px" viewBox="0 0 412 127" version="1.1" xmlns="http://www.w3.org/2000/svg" xmlns:xlink="http://www.w3.org/1999/xlink" style="background: #373434;">
    <title>Illustrations/Mobile/Browse by competency_landing</title>
    <defs>
        <rect id="path-1" x="0" y="0" width="412" height="127"></rect>
        <path d="M375.454068,18.3087023 L371.033896,22.7636786 L359.246772,10.8837418 C356.005312,7.61675918 350.701106,7.61675918 347.459647,10.8837418 L335.672522,22.7636786 L331.25235,18.3087023 C327.185792,14.2101241 320.585002,14.2101241 316.518444,18.3087023 C312.451886,22.4072805 312.451886,29.0600451 316.518444,33.1586233 L320.938616,37.6135996 L309.151491,49.4935364 C305.910032,52.760519 305.9395,58.0767908 309.180959,61.3437734 L320.378728,72.6297134 L324.769432,68.2044369 C329.160136,63.7791604 336.291346,63.7791604 340.68205,68.2044369 C345.072754,72.6297134 345.072754,79.8170751 340.68205,84.2423516 L336.261878,88.6973279 L347.459647,99.9832679 C350.701106,103.25025 356.005312,103.25025 359.246772,99.9832679 L370.44454,88.6973279 L366.024368,84.2423516 C361.633664,79.8170751 361.633664,72.6297134 366.024368,68.2044369 C370.415072,63.7791604 377.546283,63.7791604 381.936987,68.2044369 L386.357159,72.6594132 L397.554927,61.3734732 C400.796387,58.1064906 400.796387,52.760519 397.554927,49.4935364 L385.767802,37.6135996 L390.187974,33.1586233 C394.254532,29.0600451 394.254532,22.4072805 390.187974,18.3087023 C386.121416,14.2101241 379.520626,14.2101241 375.454068,18.3087023 Z" id="path-3"></path>
        <filter x="-40.2%" y="-36.7%" width="180.4%" height="179.8%" filterUnits="objectBoundingBox" id="filter-4">
            <feOffset dx="0" dy="3" in="SourceAlpha" result="shadowOffsetOuter1"></feOffset>
            <feGaussianBlur stdDeviation="12" in="shadowOffsetOuter1" result="shadowBlurOuter1"></feGaussianBlur>
            <feColorMatrix values="0 0 0 0 0.219607843   0 0 0 0 0.203921569   0 0 0 0 0.203921569  0 0 0 0.1 0" type="matrix" in="shadowBlurOuter1"></feColorMatrix>
        </filter>
        <path d="M299.630257,64.4533227 L296.291616,67.8182516 L287.388575,58.8451078 C284.940239,56.3774933 280.93387,56.3774933 278.485534,58.8451078 L269.582493,67.8182516 L266.243853,64.4533227 C263.172303,61.3575881 258.1866,61.3575881 255.115051,64.4533227 C252.043502,67.5490573 252.043502,72.5740178 255.115051,75.6697524 L258.453692,79.0346813 L249.550651,88.007825 C247.102314,90.4754396 247.124572,94.4909214 249.572908,96.9585359 L258.030797,105.483023 L261.34718,102.140526 C264.663563,98.7980304 270.049903,98.7980304 273.366285,102.140526 C276.682668,105.483023 276.682668,110.911774 273.366285,114.254271 L270.027645,117.619199 L278.485534,126.143686 C280.93387,128.611301 284.940239,128.611301 287.388575,126.143686 L295.846464,117.619199 L292.507824,114.254271 C289.191441,110.911774 289.191441,105.483023 292.507824,102.140526 C295.824207,98.7980304 301.210546,98.7980304 304.526929,102.140526 L307.86557,105.505455 L316.323459,96.9809688 C318.771795,94.5133543 318.771795,90.4754396 316.323459,88.007825 L307.420418,79.0346813 L310.759058,75.6697524 C313.830607,72.5740178 313.830607,67.5490573 310.759058,64.4533227 C307.687509,61.3575881 302.701806,61.3575881 299.630257,64.4533227 Z" id="path-5"></path>
        <filter x="-35.5%" y="-32.4%" width="171.0%" height="170.4%" filterUnits="objectBoundingBox" id="filter-6">
            <feOffset dx="0" dy="2" in="SourceAlpha" result="shadowOffsetOuter1"></feOffset>
            <feGaussianBlur stdDeviation="8" in="shadowOffsetOuter1" result="shadowBlurOuter1"></feGaussianBlur>
            <feColorMatrix values="0 0 0 0 0.921568627   0 0 0 0 0.901960784   0 0 0 0 0.890196078  0 0 0 0.16 0" type="matrix" in="shadowBlurOuter1"></feColorMatrix>
        </filter>
        <path d="M30.5779975,33.7663425 L26.4399643,37.9369587 L15.4052092,26.8153157 C12.3706515,23.7568639 7.40501173,23.7568639 4.37045407,26.8153157 L-6.66430106,37.9369587 L-10.8023342,33.7663425 C-14.6093248,29.9293757 -20.7887876,29.9293757 -24.5957782,33.7663425 C-28.4027687,37.6033094 -28.4027687,43.8314294 -24.5957782,47.6683963 L-20.457745,51.8390124 L-31.4925001,62.9606553 C-34.5270578,66.0191072 -34.4994709,70.9960424 -31.4649132,74.0544942 L-20.9818959,84.620055 L-16.8714496,80.477243 C-12.7610033,76.334431 -6.08497642,76.334431 -1.97453013,80.477243 C2.13591616,84.620055 2.13591616,91.348649 -1.97453013,95.491461 L-6.11256331,99.6620771 L4.37045407,110.227638 C7.40501173,113.28609 12.3706515,113.28609 15.4052092,110.227638 L25.8882266,99.6620771 L21.7501934,95.491461 C17.6397471,91.348649 17.6397471,84.620055 21.7501934,80.477243 C25.8606397,76.334431 32.5366666,76.334431 36.6471128,80.477243 L40.785146,84.6478591 L51.2681634,74.0822983 C54.3027211,71.0238465 54.3027211,66.0191072 51.2681634,62.9606553 L40.2334083,51.8390124 L44.3714414,47.6683963 C48.178432,43.8314294 48.178432,37.6033094 44.3714414,33.7663425 C40.5644509,29.9293757 34.384988,29.9293757 30.5779975,33.7663425 Z" id="path-7"></path>
        <filter x="-28.1%" y="-26.7%" width="156.1%" height="155.7%" filterUnits="objectBoundingBox" id="filter-8">
            <feOffset dx="0" dy="1" in="SourceAlpha" result="shadowOffsetOuter1"></feOffset>
            <feGaussianBlur stdDeviation="8" in="shadowOffsetOuter1" result="shadowBlurOuter1"></feGaussianBlur>
            <feColorMatrix values="0 0 0 0 0.854901961   0 0 0 0 0.823529412   0 0 0 0 0.788235294  0 0 0 0.16 0" type="matrix" in="shadowBlurOuter1"></feColorMatrix>
        </filter>
    </defs>
    <g id="Illustrations/Mobile/Browse-by-competency_landing" stroke="none" stroke-width="1" fill="none" fill-rule="evenodd">
        <rect fill="#373434" x="0" y="0" width="412" height="127"></rect>
        <mask id="mask-2" fill="white">
            <use xlink:href="#path-1"></use>
        </mask>
        <g id="Rectangle"></g>
        <rect id="line-1" stroke="#F0A202" mask="url(#mask-2)" x="140.5" y="26.5" width="427" height="74" rx="37"></rect>
        <rect id="Rectangle-Copy-2" stroke="#489BCA" mask="url(#mask-2)" x="22.2276596" y="-93.5" width="71.1472393" height="139"></rect>
        <g id="Path" mask="url(#mask-2)" transform="translate(353.360551, 55.433505) rotate(-315.000000) translate(-353.360551, -55.433505) ">
            <use fill="black" fill-opacity="1" filter="url(#filter-4)" xlink:href="#path-3"></use>
            <use fill="#FFFFFF" fill-rule="evenodd" xlink:href="#path-3"></use>
        </g>
        <g id="Path-Copy" fill-rule="nonzero" mask="url(#mask-2)" transform="translate(282.942600, 92.494397) rotate(-45.000000) translate(-282.942600, -92.494397) ">
            <use fill="black" fill-opacity="1" filter="url(#filter-6)" xlink:href="#path-5"></use>
            <use fill="#E8E8E8" xlink:href="#path-5"></use>
        </g>
        <g id="Path-Copy-2" mask="url(#mask-2)" transform="translate(9.894705, 68.521477) rotate(-45.000000) translate(-9.894705, -68.521477) ">
            <use fill="black" fill-opacity="1" filter="url(#filter-8)" xlink:href="#path-7"></use>
            <use fill="#E0E0E0" fill-rule="evenodd" xlink:href="#path-7"></use>
        </g>
    </g>
</svg>