<?xml version="1.0" encoding="UTF-8"?>
<svg width="150px" height="120px" viewBox="0 0 150 120" version="1.1" xmlns="http://www.w3.org/2000/svg" xmlns:xlink="http://www.w3.org/1999/xlink">
    <title>Illustrations/Mobile/Empty/discussions</title>
    <g id="Illustrations/Mobile/Empty/discussions" stroke="none" stroke-width="1" fill="none" fill-rule="evenodd">
        <rect id="Rectangle" x="0" y="0" width="150" height="120"></rect>
        <g id="discussion_empty" transform="translate(30.000000, 15.000000)">
            <path d="M59.9981543,30 C76.5393619,30 89.9963086,43.4569467 89.9963086,59.9981543 C89.9963086,65.3514017 88.5807408,70.565606 85.8925155,75.1508644 L90,90 L75.1508644,85.8925155 C70.7295348,88.4847328 65.7232182,89.8935733 60.5711803,89.9908984 L59.9981543,89.9963086 C43.4569467,89.9963086 30,76.5391861 30,59.9981543 C30,43.4571225 43.4569467,30 59.9981543,30 Z" id="Combined-Shape" fill="#C8C8C8"></path>
            <path d="M30.0027247,0 L30.4980398,0.0040267653 C46.8122178,0.269451017 60.0017403,13.6225504 60,29.9999121 L60,29.9999121 L59.996,30.003 C59.9989734,46.3767886 46.8104394,59.7270897 30.4962816,59.9890479 L30.002,59.992 C24.8403439,59.9963086 19.8074192,58.6800472 15.343229,56.1756633 L14.8495706,55.8925155 L0,60 L4.10760482,45.1508644 C1.41930078,40.565606 0.003691518,35.3514017 0.003691518,29.9981543 C0.003691518,13.4571225 13.4610325,0 30.0027247,0 L30.0027247,0 Z" id="Combined-Shape" fill="#DEDEDF" fill-rule="nonzero"></path>
        </g>
    </g>
</svg>