<svg xmlns="http://www.w3.org/2000/svg" width="108" height="108" viewBox="0 0 108 108">
    <g fill="none" fill-rule="evenodd">
        <g fill-rule="nonzero">
            <g>
                <path fill="#72A5D1" d="M71.998 36c19.85 0 35.998 16.148 35.998 35.998 0 6.424-1.7 12.68-4.925 18.183L108 108l-17.819-4.929c-5.325 3.122-11.356 4.813-17.562 4.92l-.621.005C52.148 107.996 36 91.847 36 71.998 36 52.148 52.148 36 71.998 36z" transform="translate(-152 -413) translate(152 413)"/>
                <path fill="#A9CEF6" d="M36.003 0l.595.005C56.175.323 72.002 16.347 72 36l-.006.004c.005 19.648-15.821 35.669-35.398 35.983l-.593.004c-6.217.005-12.277-1.586-17.649-4.613l-.535-.307L0 72l4.93-17.819C1.702 48.679.003 42.421.003 35.998.004 16.148 16.154 0 36.004 0z" transform="translate(-152 -413) translate(152 413)"/>
            </g>
        </g>
    </g>
</svg>
