<?xml version="1.0" encoding="UTF-8"?>
<svg width="412px" height="259px" viewBox="0 0 412 259" version="1.1" xmlns="http://www.w3.org/2000/svg" xmlns:xlink="http://www.w3.org/1999/xlink">
    <title>explore</title>
    <defs>
        <rect id="path-1" x="0" y="0" width="412" height="259"></rect>
        <linearGradient x1="50%" y1="42.52%" x2="50%" y2="-5.48%" id="linearGradient-3">
            <stop stop-color="#C3CFBB" offset="0%"></stop>
            <stop stop-color="#BFC6BF" offset="18%"></stop>
            <stop stop-color="#B4AECB" offset="46%"></stop>
            <stop stop-color="#A286DD" offset="82%"></stop>
            <stop stop-color="#9870E8" offset="100%"></stop>
        </linearGradient>
        <radialGradient cx="50%" cy="50%" fx="50%" fy="50%" r="50.4483174%" gradientTransform="translate(0.500000,0.500000),scale(0.991113,1.000000),translate(-0.500000,-0.500000)" id="radialGradient-4">
            <stop stop-color="#AEEEBF" offset="5%"></stop>
            <stop stop-color="#AEEEBF" stop-opacity="0" offset="100%"></stop>
        </radialGradient>
        <radialGradient cx="50%" cy="50%" fx="50%" fy="50%" r="50.4483174%" gradientTransform="translate(0.500000,0.500000),scale(0.991113,1.000000),translate(-0.500000,-0.500000)" id="radialGradient-5">
            <stop stop-color="#AEEEBF" offset="5%"></stop>
            <stop stop-color="#AEEEBF" stop-opacity="0" offset="100%"></stop>
        </radialGradient>
        <linearGradient x1="50.0008274%" y1="93.7164461%" x2="50.0008274%" y2="-16.4839319%" id="linearGradient-6">
            <stop stop-color="#C3CFBB" offset="0%"></stop>
            <stop stop-color="#BFC6BF" offset="18%"></stop>
            <stop stop-color="#B4AECB" offset="46%"></stop>
            <stop stop-color="#A286DD" offset="82%"></stop>
            <stop stop-color="#9870E8" offset="100%"></stop>
        </linearGradient>
        <linearGradient x1="50%" y1="107.585658%" x2="50%" y2="24.8536849%" id="linearGradient-7">
            <stop stop-color="#D4BFE0" offset="3%"></stop>
            <stop stop-color="#BAA2E2" offset="32%"></stop>
            <stop stop-color="#7859E7" offset="92%"></stop>
            <stop stop-color="#6F4FE8" offset="100%"></stop>
        </linearGradient>
        <linearGradient x1="50.0006399%" y1="114.284248%" x2="50.0006399%" y2="41.8775343%" id="linearGradient-8">
            <stop stop-color="#AA94D0" offset="0%"></stop>
            <stop stop-color="#957EC8" offset="18%"></stop>
            <stop stop-color="#725ABB" offset="53%"></stop>
            <stop stop-color="#5C44B3" offset="82%"></stop>
            <stop stop-color="#543CB0" offset="100%"></stop>
        </linearGradient>
        <linearGradient x1="50%" y1="89.2473118%" x2="50%" y2="26.6129032%" id="linearGradient-9">
            <stop stop-color="#846DC2" offset="1%"></stop>
            <stop stop-color="#7760B9" offset="9%"></stop>
            <stop stop-color="#5B44A4" offset="32%"></stop>
            <stop stop-color="#463096" offset="55%"></stop>
            <stop stop-color="#3A248D" offset="78%"></stop>
            <stop stop-color="#36208A" offset="100%"></stop>
        </linearGradient>
        <linearGradient x1="50%" y1="65.6603234%" x2="50%" y2="7.47364907%" id="linearGradient-10">
            <stop stop-color="#5741A2" offset="0%"></stop>
            <stop stop-color="#38267A" offset="62%"></stop>
            <stop stop-color="#281866" offset="100%"></stop>
        </linearGradient>
        <linearGradient x1="50%" y1="92.0868183%" x2="50%" y2="-1.24421366%" id="linearGradient-11">
            <stop stop-color="#3F2D7F" offset="20%"></stop>
            <stop stop-color="#352470" offset="40%"></stop>
            <stop stop-color="#26185A" offset="77%"></stop>
            <stop stop-color="#201352" offset="100%"></stop>
        </linearGradient>
        <linearGradient x1="49.994067%" y1="157.657028%" x2="49.994067%" y2="59.9196296%" id="linearGradient-12">
            <stop stop-color="#3F2D7F" offset="34%"></stop>
            <stop stop-color="#352470" offset="50%"></stop>
            <stop stop-color="#26185A" offset="81%"></stop>
            <stop stop-color="#201352" offset="100%"></stop>
        </linearGradient>
        <linearGradient x1="50.0009995%" y1="141.447368%" x2="50.0009995%" y2="61.6710526%" id="linearGradient-13">
            <stop stop-color="#3F2D7F" offset="5%"></stop>
            <stop stop-color="#2B1D5E" offset="44%"></stop>
            <stop stop-color="#1E1348" offset="78%"></stop>
            <stop stop-color="#190F40" offset="100%"></stop>
        </linearGradient>
    </defs>
    <g id="Galaxy-s10+-(412x869)" stroke="none" stroke-width="1" fill="none" fill-rule="evenodd">
        <g id="Explore" transform="translate(0.000000, -81.000000)">
            <g id="explore" transform="translate(0.000000, 81.000000)">
                <mask id="mask-2" fill="white">
                    <use xlink:href="#path-1"></use>
                </mask>
                <g id="Mask"></g>
                <g id="2846339" mask="url(#mask-2)">
                    <g transform="translate(-292.500000, -316.000000)">
                        <g id="ee0041d9-2c33-4c67-a085-ca41e9352be3" transform="translate(287.393557, 294.618834)">
                            <rect id="Rectangle" fill="url(#linearGradient-3)" fill-rule="nonzero" x="0.16116118" y="0.159452888" width="416.796156" height="274.918772"></rect>
                        </g>
                        <g id="Group" transform="translate(0.742619, 0.000000)" fill-rule="nonzero">
                            <ellipse id="Oval" fill="url(#radialGradient-4)" opacity="0.9" style="mix-blend-mode: overlay;" cx="673.618379" cy="480.106057" rx="178.374374" ry="176.78922"></ellipse>
                            <ellipse id="Oval" fill="url(#radialGradient-5)" opacity="0.47" style="mix-blend-mode: overlay;" cx="296.571379" cy="293.935847" rx="296.571379" ry="293.935847"></ellipse>
                            <path d="M282.963207,425.666552 L303.800893,420.705982 L321.596622,420.705982 L348.568273,412.989539 L398.062643,430.075948 L418.082838,431.729471 C418.082838,431.729471 458.679344,410.602953 462.57216,409.588792 C466.464975,408.574631 486.48517,407.202206 486.48517,407.202206 L521.242453,412.989539 L615.409663,458.048054 L615.409663,480.095034 L279.331767,480.095034 L282.963207,425.666552 Z" id="Path" fill="url(#linearGradient-6)"></path>
                            <polygon id="Path" fill="url(#linearGradient-7)" points="441.161674 449.874136 477.592867 424.200428 503.724782 412.989539 529.495222 384.515864 534.661544 379.367894 543.120076 379.367894 554.609444 386.351275 562.395075 385.981988 566.844007 391.86302 595.395029 414.621015 615.415224 476.369094 441.161674 476.369094"></polygon>
                            <polygon id="Path" fill="#272763" opacity="0.15" points="477.592867 424.200428 507.895656 440.272676 553.497211 476.369094 562.395075 476.369094 528.288449 436.326267 523.18886 425.666552 512.900705 422.91068 503.724782 412.989539"></polygon>
                            <polygon id="Path" fill="#272763" opacity="0.15" points="543.120076 379.367894 554.053327 398.383414 570.253001 404.358146 596.040124 425.942139 605.138191 444.682072 595.395029 414.621015 566.844007 391.86302 562.395075 385.981988 554.609444 386.351275"></polygon>
                            <polygon id="Path" fill="url(#linearGradient-8)" points="706.98537 409.594304 689.56224 404.358146 681.036973 406.976225 659.159349 413.540713 618.006727 442.571074 559.058376 451.389866 521.837497 448.082819 504.686864 444.04271 495.104976 445.878121 460.036268 436.326267 447.835072 430.075948 431.151576 430.445235 423.365945 436.326267 412.616213 436.690042 374.427691 446.98047 327.346867 453.963851 272.47485 464.695218 272.47485 511.743473 706.98537 511.743473"></polygon>
                            <polygon id="Path" fill="#FFFFFF" opacity="0.32" style="mix-blend-mode: overlay;" points="447.835072 430.075948 433.009006 433.01922 426.519126 440.91755 410.208228 439.997089 374.427691 446.98047 412.616213 436.690042 423.365945 436.326267 431.151576 430.445235"></polygon>
                            <polygon id="Path" fill="#272763" opacity="0.15" points="481.018545 461.311007 460.814832 473.618733 421.141479 478.028129 391.344756 511.743473 578.555821 511.743473 560.265149 451.207978 559.058376 451.389866 521.837497 448.082819 504.686864 444.04271 495.104976 445.878121 460.036268 436.326267 481.018545 453.963851"></polygon>
                            <path d="M267.65332,480.232827 C267.65332,480.232827 291.56633,442.201787 301.576427,440.548263 C311.586525,438.89474 323.264972,440.548263 323.264972,440.548263 C323.264972,440.548263 364.528817,476.374606 376.707769,480.232827 C388.886721,484.091049 440.605557,484.642223 440.605557,484.642223 L478.382552,476.92578 L506.783423,467.555814 L514.463392,457.083498 L523.80615,453.958339 L528.471967,453.958339 C528.471967,453.958339 537.369832,438.89474 539.594298,431.729471 C541.083408,427.213503 543.550879,423.074891 546.823812,419.603633 C546.823812,419.603633 547.379929,410.784841 550.716628,409.958079 C554.053327,409.131317 559.892551,409.958079 559.892551,409.958079 L565.731774,410.784841 L581.859153,391.493733 C581.859153,391.493733 588.254493,382.123767 591.313134,380.745831 C594.371775,379.367894 599.376824,371.100277 599.376824,371.100277 L612.445562,371.100277 L634.134106,379.367894 C634.134106,379.367894 642.753912,396.729891 649.149252,400.036938 C655.544592,403.343985 662.496049,409.958079 662.496049,409.958079 C662.496049,409.958079 671.950029,430.075948 676.398961,433.658582 C680.847894,437.241216 688.633525,443.304136 688.633525,443.304136 L713.102652,469.209337 L713.102652,576.13719 L267.65332,576.13719 L267.65332,480.232827 Z" id="Path" fill="url(#linearGradient-9)"></path>
                            <path d="M578.244396,457.359086 L591.63012,477.62026 L596.874299,490.153968 L623.011776,483.539874 C623.011776,483.539874 604.381872,455.705562 597.708474,450.056023 C591.035076,444.406485 579.912745,439.170327 579.912745,439.170327 L565.731774,410.784841 L559.892551,409.958079 C559.892551,409.958079 554.053327,409.131317 550.716628,409.958079 C550.716628,409.958079 561.838958,425.942139 563.785366,435.587693 C565.731774,445.233247 578.244396,457.359086 578.244396,457.359086 Z" id="Path" fill="#272763" opacity="0.33"></path>
                            <path d="M651.651776,417.950109 L663.330223,451.571753 L665.832748,442.477374 L686.687117,462.319656 L713.102652,476.374606 L713.102652,469.209337 L688.633525,443.304136 C688.633525,443.304136 680.847894,437.241216 676.398961,433.658582 C671.950029,430.075948 662.496049,409.958079 662.496049,409.958079 C662.496049,409.958079 655.544592,403.343985 649.149252,400.036938 C642.753912,396.729891 634.134106,379.367894 634.134106,379.367894 L643.588087,404.721921 L651.651776,417.950109 Z" id="Path" fill="#272763" opacity="0.33"></path>
                            <path d="M267.65332,500.543607 L282.963207,483.264287 L295.753887,464.695218 L308.861554,439.864807 L308.861554,439.864807 C306.420771,439.935435 303.987232,440.163738 301.576427,440.548263 C291.56633,442.201787 267.65332,480.232827 267.65332,480.232827 L267.65332,500.543607 Z" id="Path" fill="#FFFFFF" opacity="0.32" style="mix-blend-mode: overlay;"></path>
                            <path d="M628.389422,549.873725 C628.389422,549.873725 574.535099,531.684966 566.983036,529.01177 C559.430974,526.338574 534.778329,510.547424 529.495222,508.342727 C524.212115,506.138029 509.619617,506.138029 509.619617,506.138029 L503.307695,500.99557 L491.21216,498.052299 L486.457364,496.216888 L474.328463,484.824111 C474.328463,484.824111 462.52767,484.091049 455.553969,482.619413 C448.580268,481.147777 436.340144,478.948591 436.340144,478.948591 L411.131382,467.555814 L380.728492,456.163037 L359.229027,453.958339 L350.6982,462.044069 C350.6982,462.044069 344.769997,480.05094 339.575869,482.9887 C334.381741,485.92646 321.780141,492.358666 321.780141,492.358666 L308.066307,501.916032 L296.571379,501.916032 L276.923782,520.413448 L276.923782,569.523096 L628.389422,569.523096 L628.389422,549.873725 Z" id="Path" fill="url(#linearGradient-10)"></path>
                            <path d="M327.713904,492.358666 L347.734098,483.721762 L363.677959,464.695218 L380.728492,456.163037 L359.229027,453.958339 L350.6982,462.044069 C350.6982,462.044069 344.769997,480.05094 339.575869,482.9887 C334.381741,485.92646 321.780141,492.358666 321.780141,492.358666 L308.066307,501.916032 L314.367107,502.097919 L327.713904,492.358666 Z" id="Path" fill="#FFFFFF" opacity="0.1" style="mix-blend-mode: overlay;"></path>
                            <path d="M282.963207,558.868893 C282.963207,558.868893 374.800289,532.225117 375.356406,531.861342 C375.912523,531.497567 380.917571,532.04323 382.585921,531.861342 C384.25427,531.679455 397.784585,525.247248 398.52422,524.877961 C399.263855,524.508674 403.529269,525.059849 406.865968,527.633834 C410.202667,530.207819 411.50398,526.531485 412.060096,527.082659 C412.616213,527.633834 417.80478,533.327466 418.177378,532.594404 C418.549976,531.861342 421.141479,532.963691 422.253712,532.594404 C423.365945,532.225117 431.335095,527.451946 435.41699,525.429136 C439.498885,523.406326 442.830023,524.144899 450.243057,523.224438 C457.65609,522.303977 468.594902,518.633154 470.452331,518.08198 C472.30976,517.530805 478.977597,520.650453 484.611057,521.570914 C490.244518,522.491376 492.324394,519.917391 495.104976,520.099279 C501.222258,520.507148 509.007889,517.894581 511.148938,517.161518 C513.289986,516.428456 534.655983,510.916711 534.655983,510.916711 L595.022431,475.641544 L607.624032,464.695218 C607.624032,464.695218 619.491558,467.555814 625.052723,465.351116 C630.613888,463.146418 638.766557,467.186527 638.766557,467.186527 C638.766557,467.186527 655.083015,471.232148 662.12345,473.436846 C669.163886,475.641544 680.664375,485.193398 680.664375,485.193398 L695.490442,492.358666 L715.510636,492.358666 L715.510636,576.13719 L282.963207,576.13719 L282.963207,558.868893 Z" id="Path" fill="url(#linearGradient-11)"></path>
                            <path d="M611.705927,288.242215 C611.705927,288.242215 594.649833,298.527131 586.864202,299.998767 C579.078571,301.470403 582.41527,301.834178 575.741871,302.572752 C569.068473,303.311326 568.695875,301.101116 560.910244,302.572752 C553.124613,304.044388 547.563447,303.675101 545.711579,307.345923 C543.859711,311.016745 557.573545,308.817559 556.83391,312.124606 C556.094275,315.431653 546.084177,314.329304 543.114515,316.164715 C540.144853,318.000126 553.497211,318.005638 533.477016,320.210336 C513.456821,322.415034 517.533155,315.80094 504.931555,323.881158 C492.329955,331.961376 492.696992,330.495252 480.08983,332.336174 C467.482669,334.177097 456.732936,334.904648 464.145969,339.683331 C471.559003,344.462013 503.819322,343.72344 506.043788,346.297424 C508.268254,348.871409 487.502863,349.973758 473.78903,349.604471 C460.075197,349.235185 451.911406,344.963582 434.860874,349.670612 C417.810341,354.377643 416.319949,357.690201 399.269416,357.690201 C382.218884,357.690201 378.136989,356.951628 349.21893,359.894899 C320.300871,362.838171 323.454051,359.525612 304.35701,359.894899 C285.259969,360.264186 282.963207,359.525612 282.963207,359.525612 L282.963207,290.077626 L611.705927,288.242215 Z" id="Path" fill="#EEE8C1" opacity="0.32"></path>
                            <path d="M274.326718,337.478633 C274.326718,337.478633 299.146198,335.273935 308.84487,335.825109 C318.543542,336.376284 329.382253,339.683331 341.338758,340.78568 C353.295264,341.888029 378.415047,342.163616 380.728492,345.74625 C383.041936,349.328884 386.662255,351.809169 395.560119,352.911518 C404.457983,354.013867 403.901867,358.583104 413.07779,361.124018 C422.253712,363.664933 438.103033,366.966468 438.103033,366.966468 C438.103033,366.966468 419.195071,368.068817 408.072741,366.966468 C396.95041,365.864119 394.725944,365.037357 385.82808,366.139706 C376.930216,367.242055 374.149633,362.557072 365.807885,362.832659 C357.466138,363.108247 357.466138,364.640512 351.070798,367.457013 C344.675458,370.273515 346.343807,374.407324 330.494486,371.100277 C314.645166,367.79323 311.864583,370.273515 300.186136,371.100277 C288.507689,371.927039 279.609825,372.202626 278.219534,371.100277 C276.829242,369.997928 274.326718,337.478633 274.326718,337.478633 Z" id="Path" fill="#EEE8C1" opacity="0.32"></path>
                            <path d="M450.615655,369.722341 C450.615655,369.722341 458.957402,371.893968 472.582257,372.323884 C486.207112,372.7538 500.666141,371.342794 511.788472,372.323884 C522.910802,373.304975 537.369832,370.273515 547.101871,369.722341 C556.83391,369.171166 571.292939,369.171166 572.961289,369.722341 C574.629638,370.273515 584.639736,369.30896 584.639736,369.30896 C584.639736,369.30896 575.463813,366.415294 566.565949,366.139706 C557.668085,365.864119 550.43857,366.415294 544.877405,364.210596 C539.316239,362.005898 531.436068,363.935008 528.288449,364.210596 C525.140829,364.486183 515.959346,367.517643 506.783423,366.415294 C497.6075,365.312945 486.207112,365.588532 486.207112,365.588532 L450.615655,369.722341 Z" id="Path" fill="#EEE8C1" opacity="0.32"></path>
                            <path d="M590.757017,359.525612 C590.757017,359.525612 600.489057,355.00047 613.835853,355.612273 C627.18265,356.224077 633.856048,359.024044 640.251388,355.551644 C646.646728,352.079245 649.149252,350.982408 656.934883,350.431233 C664.720515,349.880059 666.388864,352.911518 675.00867,353.187106 C683.628476,353.462693 703.648671,351.533582 703.648671,351.533582 L703.648671,379.367894 C703.648671,379.367894 690.857991,376.612022 681.682068,376.060847 C672.506146,375.509673 669.725563,375.234086 661.661874,371.651451 C653.598184,368.068817 654.710417,369.722341 642.753912,368.344404 C630.797407,366.966468 634.968281,369.105025 623.289834,364.866493 C611.611387,360.627961 595.762066,357.596502 590.757017,359.525612 Z" id="Path" fill="#EEE8C1" opacity="0.32"></path>
                            <path d="M624.402067,328.384253 C624.402067,328.384253 639.139155,324.250445 644.144203,321.770159 C649.149252,319.289874 653.042068,321.770159 658.881291,323.148096 C664.720515,324.526032 669.725563,326.223649 675.842845,324.548079 C681.960127,322.872508 686.687117,325.099253 690.579933,325.903968 C694.472748,326.708683 706.98537,326.455143 706.98537,326.455143 L706.98537,333.620411 C706.98537,333.620411 683.07236,332.518062 676.955078,331.6913 C670.837796,330.864539 670.28168,334.171586 660.549641,330.864539 C650.817602,327.557492 652.207893,325.1213 643.310029,327.166158 C634.412164,329.211015 624.402067,328.384253 624.402067,328.384253 Z" id="Path" fill="#EEE8C1" opacity="0.32"></path>
                            <path d="M556.767176,362.165738 C556.767176,362.165738 554.54271,361.179136 553.486088,362.165738 C553.486088,362.165738 555.549281,361.862592 556.767176,363.378322 C557.990632,361.862592 560.053824,362.165738 560.053824,362.165738 C558.986088,361.179136 556.767176,362.165738 556.767176,362.165738 Z" id="Path" fill="#53307D"></path>
                            <path d="M475.006925,393.555126 C475.006925,393.555126 472.226343,392.320495 470.874979,393.555126 C470.874979,393.555126 473.466482,393.174815 475.006925,395.081879 C476.541807,393.174815 479.13331,393.555126 479.13331,393.555126 C477.793069,392.320495 475.006925,393.555126 475.006925,393.555126 Z" id="Path" fill="#53307D"></path>
                            <path d="M592.347511,347.719455 C592.347511,347.719455 588.649336,346.065931 586.864202,347.719455 C586.864202,347.719455 590.306563,347.212374 592.347511,349.742265 C594.388458,347.212374 597.836381,347.719455 597.836381,347.719455 C596.051247,346.071443 592.347511,347.719455 592.347511,347.719455 Z" id="Path" fill="#53307D"></path>
                            <path d="M567.400124,359.035067 C567.400124,359.035067 566.098811,358.483893 565.470399,359.035067 C566.193206,358.946405 566.914022,359.214052 567.400124,359.751594 C567.886226,359.214052 568.607042,358.946405 569.329848,359.035067 C568.695875,358.456334 567.400124,359.035067 567.400124,359.035067 Z" id="Path" fill="#53307D"></path>
                            <path d="M655.121943,390.00005 C655.121943,390.00005 653.904048,389.448876 653.314565,390.00005 C654.354188,390.879033 655.884138,390.879033 656.923761,390.00005 C656.334277,389.459899 655.121943,390.00005 655.121943,390.00005 Z" id="Path" fill="#53307D"></path>
                            <path d="M484.950288,397.005478 C484.950288,397.005478 483.732393,396.454304 483.14291,397.005478 C483.819127,396.921751 484.49396,397.170765 484.950288,397.672399 C485.40669,397.167429 486.084931,396.917927 486.763228,397.005478 C486.162623,396.454304 484.950288,397.005478 484.950288,397.005478 Z" id="Path" fill="#53307D"></path>
                            <path d="M454.586327,404.126653 C454.586327,404.126653 453.285014,403.575478 452.656602,404.126653 C453.378456,404.036628 454.099107,404.302155 454.586327,404.837668 C455.073546,404.302155 455.794198,404.036628 456.516051,404.126653 C455.887639,403.547919 454.586327,404.126653 454.586327,404.126653 Z" id="Path" fill="#53307D"></path>
                            <path d="M470.452331,578.893062 C470.452331,578.893062 466.353752,567.318398 463.86235,563.829463 C461.370948,560.340529 456.360338,557.568121 456.360338,557.568121 C456.360338,557.568121 449.87602,558.295671 447.835072,557.568121 C445.794124,556.84057 445.794124,552.398104 444.498373,551.593389 C443.202621,550.788674 442.090388,541.964371 439.120726,541.413196 C438.753689,544.350956 441.534272,548.060361 438.008493,550.066636 C434.482714,552.072911 432.819926,554.476032 432.819926,556.041367 C432.819926,557.606703 431.151576,560.153129 431.151576,560.153129 C431.151576,560.153129 430.272912,557.606703 428.370994,557.072064 C426.469075,556.537424 425.673829,557.485445 425.673829,557.485445 L425.117712,555.903574 C425.117712,555.903574 422.503965,557.160252 421.514077,555.997273 C420.52419,554.834295 419.628842,553.90281 419.628842,553.90281 C419.628842,553.90281 417.554527,555.38547 416.926116,553.952416 C416.297704,552.519362 415.84725,549.399715 415.03532,548.865076 C414.22339,548.330436 415.03532,541.413196 415.03532,541.413196 C415.03532,541.413196 412.810854,545.387164 412.60509,548.060361 C412.399327,550.733557 411.07577,551.995747 409.907925,553.952416 C408.740081,555.909086 409.457471,557.88229 408.645541,560.153129 C407.833611,562.423968 405.675879,563.493247 405.308842,561.889329 C404.941805,560.285411 405.937253,559.210621 403.8685,559.568884 C402.70669,559.750169 401.580768,560.110982 400.531801,560.638163 C400.988595,559.50642 400.618624,558.211709 399.630892,557.485445 C397.923614,556.179161 398.19055,558.301183 396.66123,555.903574 C395.131909,553.505965 392.523723,556.245302 390.994403,554.696502 C389.465082,553.147701 388.653152,550.518599 388.653152,550.518599 C388.653152,550.518599 388.653152,547.707609 388.02474,546.280067 C387.396329,544.852525 385.68349,545.210789 385.68349,545.210789 C385.68349,545.210789 385.505532,542.179329 383.703715,540.03526 C381.901897,537.891191 382.713828,536.915612 382.174395,535.664446 C381.634961,534.41328 380.105641,533.542424 379.833144,534.247928 C379.560647,534.953431 379.477229,538.343154 377.853369,540.03526 C376.229509,541.727366 374.70575,538.695906 373.354387,540.928163 C372.58108,542.220121 371.740198,543.471155 370.835179,544.676149 C370.835179,544.676149 367.237105,543.248607 366.608693,542.267517 C365.980281,541.286426 366.052577,539.858884 365.25733,539.412433 C364.462083,538.965982 363.905967,531.740084 362.916079,531.387332 C361.926192,531.034581 362.916079,533.630612 362.359963,534.247928 C361.803846,534.865243 358.044499,533.884153 358.133477,537.896703 C358.222456,541.909253 355.61427,535.664446 355.61427,535.664446 L354.084949,532.357399 C354.084949,532.357399 352.972716,524.508674 352.283132,525.666141 C351.593547,526.823607 351.293244,531.640872 351.293244,531.640872 C350.038018,532.475102 349.214828,533.812733 349.040972,535.300671 C348.685058,537.88568 348.412561,539.759673 348.145625,540.112424 C347.878689,540.465176 346.794262,538.420319 346.16585,538.150243 C345.537438,537.880168 345.35392,527.181871 344.814487,527.181871 C344.275054,527.181871 343.196188,530.488918 343.196188,531.194421 C343.196188,531.899924 342.923691,535.923498 341.755846,536.011686 C340.588001,536.099874 339.236638,535.653423 338.602665,536.281762 C337.968692,536.910101 336.378199,529.414128 335.18811,531.464497 C334.640274,532.403353 334.185828,533.392771 333.831185,534.418792 L332.007123,531.492055 C332.007123,531.492055 330.839279,520.611871 329.576894,521.234698 C328.31451,521.857525 328.498028,525.423624 328.498028,525.781888 C328.847098,526.846895 328.568301,528.015937 327.775077,528.813347 C326.83526,529.960275 326.23637,531.343995 326.045554,532.809362 C325.81741,533.481874 325.483315,534.114362 325.055667,534.683356 L322.986913,530.136166 C322.986913,530.136166 321.457593,523.714983 321.274074,523.35672 C321.090556,522.998456 319.839294,523.092156 320.195208,526.38818 C320.551123,529.684203 320.284187,531.205445 319.477818,531.740084 C318.671449,532.274723 315.785204,529.066888 315.785204,529.066888 L313.899969,525.677164 C313.899969,525.677164 312.548606,525.765352 312.726564,528.984211 C312.903342,530.874377 312.704969,532.780559 312.142641,534.595168 C311.964684,535.146342 309.623433,527.981074 309.623433,527.727534 C309.623433,527.473993 307.398967,524.607886 307.193204,524.161435 C306.987441,523.714983 308.544567,515.243431 306.74275,516.31271 C304.940932,517.381988 304.940932,520.948087 305.124451,521.752802 C305.307969,522.557517 305.93082,527.016518 304.496039,527.727534 C303.343313,528.33053 302.518773,529.408038 302.243767,530.670805 C302.154789,531.387332 300.44195,525.94724 300.44195,525.94724 C300.44195,525.94724 297.566827,525.94724 296.843876,524.696074 C296.120924,523.444908 295.203332,519.366216 295.203332,519.366216 C295.203332,519.366216 294.57492,514.907215 293.674012,517.404035 C292.773103,519.900856 293.76299,521.951225 293.0456,523.114203 C292.32821,524.277181 290.520831,524.183482 290.520831,524.183482 L288.296365,521.152022 L282.985452,515.800117 L282.985452,578.893062 L470.452331,578.893062 Z" id="Path" fill="url(#linearGradient-12)"></path>
                            <path d="M709.348865,539.897466 C709.348865,539.897466 702.25838,535.48807 701.563234,533.145579 C700.868088,530.803087 701.980321,528.598389 701.563234,526.118104 C701.30885,524.199972 701.230673,522.262913 701.329665,520.330772 L699.894884,513.165503 C699.731591,515.005715 699.310457,516.814412 698.643622,518.539455 C697.531389,521.433121 696.280127,524.740168 696.836244,526.531485 C697.39236,528.322802 696.141098,530.940881 696.141098,530.940881 C696.141098,530.940881 696.697214,536.452626 695.445952,535.350277 C694.19469,534.247928 693.360515,531.354262 693.360515,531.354262 C693.360515,531.354262 694.333719,535.625864 692.526341,534.661309 C690.718962,533.696753 689.745758,530.803087 689.745758,530.803087 C689.745758,530.803087 688.216438,533.55896 687.521292,533.007785 C686.826146,532.456611 684.184593,533.007785 683.350418,531.216468 C682.516243,529.425151 681.125952,524.464581 679.457602,523.086644 C677.789253,521.708708 677.233136,518.126074 676.259932,518.126074 C675.286728,518.126074 675.00867,524.188993 674.313525,525.429136 C673.661257,526.814257 673.103879,528.241355 672.645175,529.700738 C672.645175,529.700738 671.532942,525.98031 670.837796,523.913406 C670.15993,522.161465 669.602539,520.366041 669.169447,518.539455 C668.943086,517.244965 668.419871,516.019267 667.640126,514.95682 C667.172109,516.203066 666.845693,517.497127 666.666922,518.815042 C666.527893,520.468565 666.666922,525.153549 666.666922,525.153549 L666.60575,528.185008 C666.60575,528.185008 662.21799,524.877961 662.078961,521.295327 C661.939932,517.712693 660.410612,517.161518 660.410612,517.161518 C660.410612,517.161518 658.881291,514.95682 658.047116,513.992265 C657.212942,513.02771 657.630029,505.03568 656.795854,503.933331 C655.961679,502.830982 654.849446,497.594824 654.849446,497.594824 C654.849446,497.594824 653.737213,503.382156 653.459155,506.689203 C653.181097,509.99625 652.346922,514.405646 652.346922,514.405646 L650.261485,521.433121 L648.037019,523.775612 C647.755097,521.502427 647.337275,519.247832 646.785757,517.023725 C645.673524,512.063154 645.256436,510.547424 645.256436,510.134044 C645.256436,509.720663 644.005174,499.110554 643.03197,497.594824 C642.570713,498.330203 642.197453,499.116331 641.919737,499.937315 C641.224592,501.728633 640.112359,504.208918 640.112359,504.897886 C640.112359,505.586854 639.417213,510.547424 639.417213,510.547424 L638.30498,514.95682 C638.30498,514.95682 636.63663,512.476535 636.358572,510.547424 C636.001901,508.54926 635.537809,506.571401 634.968281,504.622299 C634.829252,504.208918 633.856048,492.358666 633.856048,492.358666 C632.014105,495.563761 630.744199,499.05993 630.102261,502.693188 C629.268086,508.204933 628.990028,506.138029 628.572941,510.271837 C628.155853,514.405646 627.877795,520.330772 627.877795,520.330772 C627.877795,520.330772 625.653329,514.54344 625.236242,513.854471 C624.819154,513.165503 625.236242,506.551409 625.236242,506.551409 C625.236242,506.551409 625.697818,497.45703 625.052723,496.216888 C624.407628,494.976745 623.84595,498.421586 623.84595,498.421586 C623.84595,498.421586 623.428863,504.208918 621.343426,506.826997 C619.257989,509.445076 619.675076,514.681233 619.675076,514.681233 L618.145756,520.468565 L618.145756,524.0512 C618.145756,524.0512 617.311581,517.98828 616.199348,515.507995 C615.087115,513.02771 615.087115,506.826997 615.087115,506.826997 C614.212325,507.939833 613.681185,509.279812 613.557795,510.685218 C613.406844,512.887378 613.406844,515.097152 613.557795,517.299312 C613.557795,517.299312 611.333329,520.468565 611.333329,521.570914 C611.333329,521.570914 610.916241,516.610344 610.221096,516.12531 C609.52595,515.640277 609.664979,518.126074 608.969833,518.126074 C608.274688,518.126074 605.633134,510.134044 605.633134,510.134044 L604.937989,507.378171 C604.937989,507.378171 605.216047,507.653758 604.937989,511.374186 C604.772974,513.713823 604.772974,516.062024 604.937989,518.401661 L602.713523,516.885931 C602.713523,516.885931 602.296435,510.960805 601.60129,510.547424 C600.906144,510.134044 600.906144,514.267852 600.628086,514.95682 C600.350027,515.645789 598.681678,516.196963 598.542649,520.744153 C598.40362,525.291342 597.569445,527.358247 597.569445,527.358247 C597.569445,527.358247 595.066921,525.153549 594.649833,528.736183 C594.232746,532.318817 590.757017,530.665294 590.757017,530.665294 C590.757017,530.665294 589.227697,534.110134 587.976435,532.732198 C586.725173,531.354262 583.805561,535.901451 582.832357,534.247928 C581.859153,532.594404 583.110415,531.216468 582.832357,529.01177 C582.554299,526.807072 581.998182,525.56693 581.720124,524.0512 C581.442066,522.53547 581.720124,517.161518 581.720124,517.161518 C581.720124,517.161518 579.773716,516.196963 579.773716,519.366216 C579.773716,522.53547 579.912745,524.740168 578.661483,527.220453 L576.576046,531.354262 C576.576046,531.354262 576.437017,529.01177 576.576046,526.393691 C576.715075,523.775612 577.287875,520.744153 576.514873,520.744153 C575.741871,520.744153 575.741871,521.295327 575.324784,523.913406 C574.768334,526.565743 574.072237,529.187406 573.239347,531.767643 C573.239347,531.767643 572.683231,529.149564 572.405172,526.807072 C572.226455,525.573254 572.226455,524.320462 572.405172,523.086644 C572.405172,523.086644 570.319735,523.224438 570.319735,524.877961 C570.319735,526.531485 569.068473,531.078674 569.068473,531.078674 L568.234298,534.110134 C568.234298,534.110134 566.565949,531.078674 566.983036,529.01177 C567.400124,526.944866 566.916302,521.157534 566.916302,521.157534 C565.834554,521.919425 565.187188,523.149354 565.175658,524.464581 C565.175658,526.669279 565.592745,529.149564 565.175658,529.976326 C564.75857,530.803087 563.507308,532.04323 563.507308,532.869992 L563.507308,535.901451 C563.507308,535.901451 559.197405,537.968356 559.197405,538.381737 C558.941875,539.278083 558.616496,540.153408 558.224201,540.999815 C558.224201,540.999815 554.470415,540.586435 553.775269,539.070705 C553.080123,537.554975 551.133715,532.594404 551.133715,532.594404 C551.019213,533.627827 550.785986,534.644906 550.43857,535.625864 C549.882453,537.141594 550.160512,538.657324 549.465366,540.999815 C548.77022,543.342307 548.353133,543.755688 547.797016,543.06672 C547.2409,542.377752 545.57255,540.724228 546.128667,538.381737 C546.684783,536.039245 545.989638,537.417181 545.433521,533.55896 C544.877405,529.700738 544.599346,527.082659 544.599346,527.082659 C543.350091,528.690042 542.536469,530.587434 542.235851,532.594404 C541.679735,536.039245 543.487113,537.0038 542.235851,539.070705 C540.984589,541.137609 539.872356,542.15177 539.872356,543.369866 C539.872356,544.587961 539.316239,546.09818 539.038181,545.409211 C538.760123,544.720243 538.482065,541.137609 537.230802,539.897466 C535.97954,538.657324 536.674686,542.377752 536.257599,542.791133 C535.840511,543.204513 534.033132,544.858037 534.033132,544.858037 C534.033132,544.858037 534.589249,542.239958 534.033132,540.448641 C533.477016,538.657324 534.172162,534.936896 534.033132,534.247928 C533.655898,533.165567 533.212025,532.107161 532.704014,531.078674 C532.704014,531.078674 531.224744,534.247928 530.752045,535.763658 C530.279346,537.279388 528.727781,535.763658 528.805637,538.381737 C528.883494,540.999815 528.05488,544.995831 527.498763,544.858037 C526.942647,544.720243 526.342041,541.55099 526.38653,540.862022 C526.43102,540.173054 527.33749,539.346292 526.38653,536.177039 C525.435571,533.007785 524.278849,531.078674 524.301093,530.5275 C524.323338,529.976326 524.301093,532.181023 524.301093,532.594404 C524.301093,533.007785 524.039719,538.106149 523.833956,538.51953 C523.628192,538.932911 523.211105,538.795117 522.515959,543.342307 C521.820814,547.889497 520.84761,548.192643 520.569552,548.181619 C520.291493,548.170596 519.879967,540.724228 519.879967,540.724228 L518.211618,537.0038 C518.211618,537.0038 517.31627,544.444656 515.88705,544.444656 C514.457831,544.444656 512.756114,541.55099 512.706064,540.999815 C512.656013,540.448641 509.313753,537.0038 509.035695,534.385721 C508.929975,533.08045 508.697177,531.788365 508.340549,530.5275 C508.340549,530.5275 505.604456,535.212483 505.86027,537.968356 C506.116083,540.724228 504.71467,545.547005 504.71467,545.547005 C504.71467,545.547005 501.222258,542.928926 500.110025,539.208498 C498.997792,535.48807 497.212658,530.803087 497.212658,530.803087 C497.212658,530.803087 494.54886,538.932911 495.238444,540.310847 C495.928029,541.688784 490.656044,544.169069 491.21216,545.822592 C491.768277,547.476116 486.451803,548.181619 486.451803,548.181619 L483.426529,544.58245 L481.063034,537.968356 C481.063034,537.968356 479.177799,543.755688 478.382552,545.547005 C477.587306,547.338322 475.957884,550.628834 475.957884,550.628834 L472.026141,545.117089 L469.629278,540.569899 C469.629278,540.569899 467.855267,546.235973 468.122203,547.476116 C468.389139,548.716258 466.743034,550.055612 466.743034,550.49104 C466.743034,550.926468 464.796626,549.873725 464.796626,549.873725 L464.796626,544.306862 L462.989247,539.208498 C462.989247,539.208498 461.737985,543.893482 461.943748,544.306862 C462.149511,544.720243 461.181868,548.165084 461.181868,548.165084 L457.394715,549.85719 L454.786528,553.252424 C454.786528,553.252424 454.369441,550.077659 453.813325,547.459581 C453.499371,545.543017 453.499371,543.588812 453.813325,541.672248 C453.813325,541.672248 451.3108,544.218674 452.005946,549.080034 C452.701092,553.941393 452.284004,556.487819 451.3108,557.551586 C450.337596,558.615352 448.669247,557.105134 448.11313,560.412181 C447.557014,563.719228 444.91546,565.786133 444.359344,566.199513 C443.803227,566.612894 437.268858,570.212064 437.268858,570.625445 C437.268858,571.038826 431.151576,576.13719 431.151576,576.13719 L707.725005,576.13719 L709.348865,539.897466 Z" id="Path" fill="url(#linearGradient-13)"></path>
                        </g>
                    </g>
                </g>
            </g>
        </g>
    </g>
</svg>