<?xml version="1.0" encoding="UTF-8"?>
<svg width="24px" height="24px" viewBox="0 0 24 24" version="1.1" xmlns="http://www.w3.org/2000/svg" xmlns:xlink="http://www.w3.org/1999/xlink">
    <title>Icons/action/home</title>
    <g id="Icons/action/home" stroke="none" stroke-width="1" fill="none" fill-rule="evenodd">
        <rect id="Size" fill="#D8D8D8" opacity="0" x="0" y="0" width="24" height="24"></rect>
        <path d="M10,19 L10,14 L14,14 L14,19 C14,19.55 14.45,20 15,20 L18,20 C18.55,20 19,19.55 19,19 L19,12 L20.7,12 C21.16,12 21.38,11.43 21.03,11.13 L12.67,3.6 C12.29,3.26 11.71,3.26 11.33,3.6 L2.97,11.13 C2.63,11.43 2.84,12 3.3,12 L5,12 L5,19 C5,19.55 5.45,20 6,20 L9,20 C9.55,20 10,19.55 10,19 Z" id="Path" fill="#0074B6"></path>
    </g>
</svg>