<svg xmlns="http://www.w3.org/2000/svg" width="20" height="20" viewBox="0 0 20 20">
    <g fill="none" fill-rule="evenodd">
        <g>
            <g>
                <g>
                    <path fill="#000" fill-opacity=".4" d="M16.667 5v10c0 .458.375.833.833.833.458 0 .833-.375.833-.833V5c0-.458-.375-.833-.833-.833-.458 0-.833.375-.833.833zm-2.5 10.833c.458 0 .833-.375.833-.833V5c0-.458-.375-.833-.833-.833-.459 0-.834.375-.834.833v10c0 .458.375.833.834.833zM10.952 4.167H2.381c-.393 0-.714.375-.714.833v10c0 .458.321.833.714.833h8.571c.393 0 .715-.375.715-.833V5c0-.458-.322-.833-.715-.833z" transform="translate(-32 -881) translate(32 880) translate(0 1)"/>
                </g>
            </g>
        </g>
    </g>
</svg>
