<svg xmlns="http://www.w3.org/2000/svg" width="20" height="20" viewBox="0 0 20 20">
    <g fill="none" fill-rule="evenodd">
        <g>
            <g>
                <g>
                    <path fill="#000" fill-opacity=".4" d="M15 3.333H5c-.917 0-1.667.75-1.667 1.667v10c0 .917.75 1.667 1.667 1.667h10c.917 0 1.667-.75 1.667-1.667V5c0-.917-.75-1.667-1.667-1.667zm-7.083 6.25c0 .692-.559 1.25-1.25 1.25h-.834v1.042c0 .342-.283.625-.625.625-.341 0-.625-.283-.625-.625V8.333c0-.458.375-.833.834-.833h1.25c.691 0 1.25.558 1.25 1.25v.833zm4.166 1.667c0 .692-.558 1.25-1.25 1.25H9.167c-.234 0-.417-.183-.417-.417V7.917c0-.234.183-.417.417-.417h1.666c.692 0 1.25.558 1.25 1.25v2.5zm3.334-3.125c0 .342-.284.625-.625.625h-.625v.833h.625c.341 0 .625.284.625.625 0 .342-.284.625-.625.625h-.625v1.042c0 .342-.284.625-.625.625-.342 0-.625-.283-.625-.625V8.333c0-.458.375-.833.833-.833h1.042c.341 0 .625.283.625.625zM5.833 9.583h.834V8.75h-.834v.833zM10 11.25h.833v-2.5H10v2.5z" transform="translate(-32 -945) translate(32 944) translate(0 1)"/>
                </g>
            </g>
        </g>
    </g>
</svg>
