<svg xmlns="http://www.w3.org/2000/svg" width="24" height="24" viewBox="0 0 24 24">
    <g fill="none" fill-rule="evenodd">
        <g>
            <g>
                <g>
                    <path fill="#000" fill-opacity=".4" d="M12 1c.55 0 1 .45 1 1v1.06c4.17.46 7.48 3.77 7.94 7.94H22c.55 0 1 .45 1 1s-.45 1-1 1h-1.06c-.46 4.17-3.77 7.48-7.94 7.94V22c0 .55-.45 1-1 1s-1-.45-1-1v-1.06c-4.17-.46-7.48-3.77-7.94-7.94H2c-.55 0-1-.45-1-1s.45-1 1-1h1.06C3.52 6.83 6.83 3.52 11 3.06V2c0-.55.45-1 1-1zm0 4c-3.87 0-7 3.13-7 7s3.13 7 7 7 7-3.13 7-7-3.13-7-7-7zm0 5c1.105 0 2 .895 2 2s-.895 2-2 2-2-.895-2-2 .895-2 2-2z" transform="translate(-32 -668) translate(16 656) translate(16 12)"/>
                </g>
            </g>
        </g>
    </g>
</svg>
