<svg xmlns="http://www.w3.org/2000/svg" width="20" height="20" viewBox="0 0 20 20">
    <g fill="none" fill-rule="evenodd">
        <g>
            <g>
                <g>
                    <path fill="#000" fill-opacity=".4" d="M11.667.833H8.333c-.458 0-.833.375-.833.834 0 .458.375.833.833.833h3.334c.458 0 .833-.375.833-.833 0-.459-.375-.834-.833-.834zM10 11.667c.458 0 .833-.375.833-.834V7.5c0-.458-.375-.833-.833-.833-.458 0-.833.375-.833.833v3.333c0 .459.375.834.833.834zm5.858-5.509l.625-.625c.317-.316.325-.841 0-1.166l-.008-.009c-.325-.325-.842-.316-1.167 0l-.625.625C13.392 3.95 11.767 3.333 10 3.333c-4 0-7.4 3.3-7.5 7.3-.108 4.234 3.283 7.7 7.5 7.7 4.15 0 7.5-3.358 7.5-7.5 0-1.766-.617-3.391-1.642-4.675zM10 16.667c-3.225 0-5.833-2.609-5.833-5.834C4.167 7.608 6.775 5 10 5s5.833 2.608 5.833 5.833-2.608 5.834-5.833 5.834z" transform="translate(-32 -849) translate(32 848) translate(0 1)"/>
                </g>
            </g>
        </g>
    </g>
</svg>
