<svg width="42" height="42" xmlns="http://www.w3.org/2000/svg" xmlns:xlink="http://www.w3.org/1999/xlink"><defs><path d="M0 2.14a2.14 2.14 0 104.28 0 2.141 2.141 0 00-4.28 0" id="path-1"/><path id="path-3" d="M0 0h15.184v17.328H0z"/><path id="path-5" d="M0 0h6.688v5.164H0z"/><path id="path-7" d="M0 42h41.41V0H0z"/></defs><g id="Symbols" stroke="none" stroke-width="1" fill="none" fill-rule="evenodd"><g id="Logos/KarmayogiBharat_Logo" transform="translate(-39)"><g id="Group-55" transform="translate(39)"><g id="Group-5" transform="translate(5.19 .976)" fill="#264092"><path d="M26.635 10.097a17.383 17.383 0 00-2.686-.203c-.114.006-.226.012-.336.02.334-.582.638-1.104.922-1.681 2.804-.433 4.462-.119 4.462-.119s-.7.502-2.362 1.983m-3.654-.131c-.664.067-1.27.165-1.822.288a9.62 9.62 0 00.474-1.334c.266-.105.137-.561.43-.66a64.89 64.89 0 012.757-.689c-.276.556-.75 2.697-1.84 2.395m-.733-4.495c2.4-1.308 4-1.53 4-1.53s-.725.856-2.14 3.731c-.451.08-.847.181-1.34.309-.344.108-.67.22-.98.336.224-.971.353-1.901.46-2.846m5.022 4.738c2.082-1.895 2.948-2.318 2.948-2.318s-2.008-.788-5.397-.32l.047-.097c1.627-3.351 2.467-4.235 2.467-4.235s-2.084-.033-5.014 1.506c.408-3.644.897-4.745.897-4.745s-2.584.896-5.345 4.786c-.143.225-.278.446-.404.663l.089.881c.15-.281.013-.194.195-.491 2.344-3.487 4.545-4.692 4.545-4.692s-.255.867-.62 3.909c-.44.254-.821.542-1.291.872-1.294 1.005-1.922 1.905-2.587 2.803l.075.065c.589-.882 1.162-1.648 2.455-2.698a37.72 37.72 0 011.99-1.353c-.106.909-.297 2.635-.532 3.572-1.602.67-3.007 1.6-3.794 2.336.678-.701 2.23-1.319 3.794-2.011-.136.431-.428 1.222-.628 1.612-1.176.324-2.401.839-3.077 1.281l.056.397c.55-.393 1.54-1.001 2.56-1.326-.106.7-.654 1.801-2.497 2.107l.048.475c1.386-.432 2-1.394 2.62-2.506.529-.131 2.089-.69 2.744-.768-1.007 1.913-4.315 4.775-5.34 3.517l.048.467c2.452.055 3.76-1.507 4.972-3.449l.209-.017c.447-.538 3.007-.326 3.767-.223-.134.125-1.05 1.215-1.196 1.352-2.005 1.895-6.03 4.756-7.718 2.825l.052.363c3.266 1.026 5.81-1.646 8.018-3.753.117-.111.23-.142.34-.247 2.07.381 3.14.915 3.14.915s-1.047.299-3.876 1.853c-2.318 1.273-5.01 2.862-7.601 1.441l.057.569c2.798 1.349 5.719-.39 8.244-1.793 3.256-1.808 4.452-2.049 4.452-2.049s-1.325-.962-3.912-1.476" id="Fill-1"/><path d="M2.184 8.114s1.658-.314 4.462.118c.284.578.588 1.1.922 1.681-.11-.007-.222-.014-.336-.019-.997 0-1.892.08-2.686.203-1.664-1.48-2.362-1.983-2.362-1.983M6.36 7.57a66.13 66.13 0 012.758.69c.293.098.164.555.43.66.129.461.284.91.474 1.334a15.344 15.344 0 00-1.823-.288C7.11 10.268 6.637 8.127 6.36 7.57m3.034.747c-.31-.116-.636-.229-.98-.336a16.448 16.448 0 00-1.34-.309C5.659 4.796 4.934 3.94 4.934 3.94s1.6.223 4 1.531c.107.944.236 1.875.46 2.846M0 11.684s1.196.241 4.452 2.05c2.525 1.403 5.446 3.141 8.243 1.793l.058-.569c-2.592 1.421-5.283-.169-7.601-1.442-2.829-1.553-3.877-1.852-3.877-1.852s1.071-.535 3.139-.915c.112.104.225.135.342.247 2.208 2.107 4.752 4.78 8.018 3.753l.127-.439c-1.689 1.932-5.788-.855-7.794-2.749-.145-.138-1.061-1.228-1.195-1.352.76-.104 3.32-.315 3.767.223l.209.016c1.211 1.943 2.52 3.504 4.972 3.45l.047-.467c-1.025 1.258-4.203-1.558-5.339-3.518.655.078 2.2.7 2.729.831.62 1.112 1.249 2.012 2.635 2.444l.048-.475c-1.843-.307-2.391-1.407-2.498-2.107 1.02.324 2.011.932 2.561 1.326l.056-.398c-.677-.44-1.902-.956-3.077-1.28-.2-.39-.492-1.18-.628-1.612 1.564.692 3.115 1.31 3.794 2.011-.787-.737-2.192-1.667-3.794-2.336-.235-.937-.426-2.663-.533-3.572a37.683 37.683 0 011.991 1.352c1.293 1.05 1.865 1.817 2.455 2.698l.075-.064c-.665-.899-1.293-1.799-2.587-2.803-.47-.33-.851-.618-1.292-.872-.365-3.042-.62-3.91-.62-3.91s2.202 1.206 4.546 4.692c.182.298.045.211.195.491l.089-.88a17.977 17.977 0 00-.405-.663C10.548.896 7.964 0 7.964 0s.489 1.101.897 4.745C5.931 3.205 3.847 3.24 3.847 3.24s.84.884 2.467 4.235l.046.096c-3.388-.467-5.396.321-5.396.321s.866.422 2.948 2.318C1.325 10.722 0 11.684 0 11.684" id="Fill-3"/></g><g id="Group-8" transform="translate(18.702 10.57)"><mask id="mask-2" fill="#fff"><use xlink:href="#path-1"/></mask><path d="M0 2.14a2.14 2.14 0 104.28 0 2.141 2.141 0 00-4.28 0" id="Fill-6" mask="url(#mask-2)"/></g><g id="Group-54"><path id="Fill-9" fill="#264092" d="M23.422 19.626l-2.61-6.824-2.608 6.824 1.86 1.653.034-2.918.608-.509.805.34.016 1.154-.115 2.136.972-1.008z"/><path d="M20.825 22.371s-.279 1.202.894 1.151c.913-.04 3.433-.484 4.438-.66 1.006-.175 3.016.551 1.783 2.898-.663 1.1-3.015 1.233-5.462-.474-2.447-1.707-3.75-2.632-4.685-3.054-1.242-.56-4.285-1.114-4.894 1.954-.314 2.17 2.03 2.598 2.03 2.598s-1.625-.518-1.65-2.124c-.018-1.103 1.071-2.86 3.272-2.106 2.218.76 2.21 1.044 5.377 3.396 1.972 1.327 5.178 2.41 6.695.19.911-1.518.38-3.605-1.65-3.85-1.555-.19-1.442.435-4.913.947-1.176.167-1.228-.274-1.235-.866" id="Fill-11" fill="#1B2133"/><path d="M18.907 27.05l-2.045-.948a1.337 1.337 0 00-1.776.65l-.03.063.832.372s.634-.237.907.394c.53.234.784.365.784.365l-.038.083-.782-.356s-.621.222-.91-.381a14.47 14.47 0 01-.827-.402l-.017.036a1.338 1.338 0 00.65 1.777l2.045.948c.67.31 1.466.02 1.777-.65l.08-.174c.31-.67.02-1.465-.65-1.776" id="Fill-13" fill="#1B2133"/><path d="M20.835 17.726h-.01c-.915 0-.832 1.071-.832 1.071v1.765c-.338-.662-2.058-1.702-2.058-1.702l1.29-12.769-.626.015-1.312 13.307s2.815 1.512 3.346 3.495v-3.866a.438.438 0 01-.252-.402.443.443 0 11.628.403v3.865c.67-2.206 3.282-3.494 3.282-3.494s-.925-9.773-1.302-13.323h-.543l.15 1.493 1.14 11.276s-1.72 1.04-2.058 1.702v-1.765s.076-1.07-.833-1.07h-.01z" id="Fill-15" fill="#EF951E"/><g id="Group-19" transform="translate(4.04)"><mask id="mask-4" fill="#fff"><use xlink:href="#path-3"/></mask><path d="M2.354 8.908s1.787-.582 4.809-.116c.306.622.634 1.266.994 1.893-.119-.008-.24-.015-.362-.021-1.075 0-2.04.085-2.895.219-1.793-1.597-2.546-1.975-2.546-1.975m2.883-4.58s1.806.078 4.392 1.488c.115 1.018.254 2.102.496 3.149a19.945 19.945 0 00-1.056-.363 19.829 19.829 0 00-1.526-.333c-1.525-3.1-2.306-3.94-2.306-3.94m5.054 5.285c.139.497.306.98.51 1.438a16.775 16.775 0 00-1.964-.311 28.5 28.5 0 01-.975-1.827c.482.095.991.217 1.526.37.316.107.616.217.903.33m-4.738 4.954c-3.05-1.674-4.179-1.915-4.179-1.915s1.154-.74 3.384-1.15l.368.349c2.402 2.29 5.503 5.285 9.063 4.094l.056-.557c-3.301 1.208-6.147-1.512-8.33-3.574a46.966 46.966 0 00-.453-.423c.82-.111 1.757-.174 2.814-.148.076.005.151.01.226.018 1.32 2.118 3.081 3.9 5.776 3.797l.051-.504c-2.371.08-3.944-1.413-5.125-3.223.705.084 1.34.202 1.91.344.682 1.222 1.694 2.194 3.239 2.649l.051-.511a4.814 4.814 0 01-2.526-1.922c1.154.367 1.992.832 2.591 1.275l.061-.596c-.739-.496-1.73-.987-3.049-1.351a8.687 8.687 0 01-.538-1.334c1.752.776 2.884 1.65 3.613 2.428l.067-.671c-.851-.817-2.085-1.684-3.869-2.43-.254-1.01-.394-2.064-.509-3.043.465.279.95.6 1.451.97 1.454 1.18 2.416 2.294 3.051 3.275l.082-.811c-.722-1-1.745-2.09-3.194-3.215a19.384 19.384 0 00-1.474-.94c-.393-3.278-.83-4.294-.83-4.294s2.616 1.056 5.143 4.813c.228.374.431.735.613 1.084l.097-.96a20.59 20.59 0 00-.515-.852C11.693 1.047 8.584 0 8.584 0s.527 1.187.966 5.114C6.392 3.454 4.146 3.49 4.146 3.49s.906.953 2.659 4.565l.05.104c-3.652-.504-5.816.345-5.816.345s.934.456 3.177 2.499C1.428 11.557 0 12.594 0 12.594s1.289.259 4.798 2.209c2.751 1.528 6.27 3.51 9.308 1.965l.063-.62c-2.816 1.63-6.088-.192-8.616-1.58" id="Fill-17" fill="#EF951E" mask="url(#mask-4)"/></g><path d="M32.637 10.882a18.82 18.82 0 00-2.895-.218c-.123.005-.243.013-.363.02.361-.627.688-1.27.994-1.893 3.023-.465 4.81.116 4.81.116s-.753.38-2.546 1.975m-3.938-.14c-.716.071-1.369.177-1.964.31.204-.458.371-.942.511-1.439.286-.112.586-.223.903-.329a18.22 18.22 0 011.526-.37 29.066 29.066 0 01-.976 1.827m-.79-4.926c2.585-1.41 4.39-1.487 4.39-1.487s-.78.842-2.306 3.941c-.486.086-.994.194-1.525.332a20.6 20.6 0 00-1.057.363c.242-1.047.381-2.13.497-3.149m5.413 5.188c2.243-2.043 3.176-2.499 3.176-2.499s-2.163-.849-5.816-.345l.051-.104c1.753-3.61 2.658-4.564 2.658-4.564s-2.245-.037-5.404 1.623c.44-3.928.967-5.114.967-5.114s-3.109 1.046-6.085 5.24c-.155.242-.3.48-.436.713l.096.95c.161-.303.34-.614.534-.935 2.528-3.758 5.143-4.814 5.143-4.814s-.437 1.016-.829 4.295c-.476.274-.968.584-1.474.94-1.395 1.082-2.396 2.134-3.113 3.102l.081.8c.635-.95 1.577-2.02 2.971-3.15.501-.372.986-.692 1.451-.972-.116.98-.256 2.033-.509 3.044-1.727.721-2.937 1.556-3.785 2.35l.067.663c.731-.756 1.842-1.594 3.528-2.34a8.501 8.501 0 01-.538 1.334c-1.267.35-2.232.817-2.96 1.293l.06.59c.592-.423 1.404-.862 2.504-1.212-.569.838-1.35 1.51-2.436 1.892l.051.512c1.494-.466 2.481-1.422 3.15-2.62a15.41 15.41 0 011.91-.344c-1.167 1.787-2.714 3.265-5.033 3.226l.051.503c2.642.06 4.378-1.705 5.683-3.799l.226-.017a17.45 17.45 0 012.813.148c-.145.134-.296.274-.452.422-2.162 2.042-4.973 4.73-8.234 3.61l.056.553c3.52 1.106 6.587-1.855 8.967-4.126l.368-.347c2.23.41 3.383 1.148 3.383 1.148s-1.129.241-4.178 1.916c-2.498 1.372-5.724 3.166-8.517 1.635l.062.613c3.015 1.453 6.488-.502 9.21-2.014 3.51-1.949 4.797-2.209 4.797-2.209s-1.428-1.037-4.215-1.59" id="Fill-20" fill="#EF951E"/><g id="Group-24" transform="translate(0 32.382)"><mask id="mask-6" fill="#fff"><use xlink:href="#path-5"/></mask><path d="M6.688.862H3.887v.839c.225-.2.497-.3.815-.3.457 0 .825.142 1.105.427.279.285.419.648.419 1.089 0 .477-.16.858-.477 1.143-.318.284-.726.427-1.223.427-.077 0-.137-.003-.177-.008v-.87c.03.005.07.008.123.008.21 0 .373-.064.488-.192a.708.708 0 00.173-.493.718.718 0 00-.161-.473c-.108-.131-.264-.196-.47-.196a.562.562 0 00-.442.196c-.116.131-.173.304-.173.519v2.186H2.794v-.893a1.19 1.19 0 01-.816.293c-.456 0-.825-.143-1.104-.427-.28-.285-.42-.648-.42-1.089 0-.478.159-.858.478-1.143.318-.285.726-.427 1.223-.427.072 0 .13.002.177.007v.87a.795.795 0 00-.123-.008c-.21 0-.373.065-.49.193a.709.709 0 00-.172.492c0 .185.054.343.162.473.108.131.264.197.469.197.18 0 .327-.066.443-.197.115-.13.173-.303.173-.519V.862H0V0h6.688v.862z" id="Fill-22" fill="#EF951E" mask="url(#mask-6)"/></g><mask id="mask-8" fill="#fff"><use xlink:href="#path-7"/></mask><path d="M8.142 34.675h1.216v-1.431H8.142v1.431zm-1.916-1.431v-.862h4.964v.862h-.77v4.302H9.358v-2.009H8.142v.939h-.916l-.277-.615c-.149-.339-.223-.575-.223-.709 0-.22.115-.361.346-.423v-1.485h-.846z" id="Fill-25" fill="#EF951E" mask="url(#mask-8)"/><path d="M10.659 31.29a.588.588 0 00-.4.141.492.492 0 00-.162.39c0 .23.098.448.293.653H9.296a.54.54 0 01-.088-.096 1.497 1.497 0 01-.139-.285 1.213 1.213 0 01-.089-.458c0-.42.136-.742.409-.965.272-.224.603-.335.993-.335.375 0 .693.064.954.192v.962c-.257-.133-.482-.2-.678-.2" id="Fill-27" fill="#EF951E" mask="url(#mask-8)"/><path d="M13.267 35.776c.292 0 .523-.085.693-.254.17-.17.254-.423.254-.762v-1.516h-1c.107.164.161.385.161.662 0 .333-.094.607-.28.819-.188.213-.43.369-.728.466.118.39.418.585.9.585m-.185.954c-.508 0-.945-.184-1.312-.554-.367-.37-.589-.877-.666-1.524.801-.112 1.201-.38 1.201-.8 0-.257-.074-.46-.223-.608h-1.355v-.862h5.341v.862H15.3v4.302h-1.085v-1.308c-.088.149-.234.268-.439.358a1.724 1.724 0 01-.693.134" id="Fill-28" fill="#EF951E" mask="url(#mask-8)"/><path d="M17.461 32.382h.762v.862h-.77v4.302h-1.077v-4.302h-.77v-.862h.693l-.516-.754a.662.662 0 00-.585-.316 1.7 1.7 0 00-.492.077v-.908c.185-.036.38-.054.585-.054.313.005.577.062.792.17.216.107.406.287.57.538l.808 1.247z" id="Fill-29" fill="#EF951E" mask="url(#mask-8)"/><path d="M17.762 32.382h4.964v.862h-.77v4.302h-1.077v-4.302h-.854v1.647c0 .369-.104.644-.312.823-.208.18-.476.27-.804.27-.247 0-.475-.036-.685-.108v-.847a.769.769 0 00.377.093c.226 0 .339-.118.339-.354v-1.524h-1.178v-.862z" id="Fill-30" fill="#EF951E" mask="url(#mask-8)"/><path d="M24.11 32.382h.777v.862h-.768v4.302h-1.085v-4.302h-.77v-.862h.762v-.462c0-.19-.05-.336-.15-.438-.1-.103-.244-.154-.428-.154-.358 0-.538.197-.538.592v.193h-1.093v-.231c0-.482.154-.847.462-1.093.308-.246.698-.369 1.17-.369.476 0 .872.121 1.188.365.316.244.473.607.473 1.089v.508z" id="Fill-31" fill="#EF951E" mask="url(#mask-8)"/><path d="M29.528 34.637v-2.255h1.832v.862h-.77v4.302h-1.062v-2.047H28.35v.962h-.938l-.277-.593c-.139-.292-.208-.518-.208-.677 0-.267.118-.433.354-.5V33.59c0-.241-.118-.361-.354-.361a.927.927 0 00-.416.108v-.84c.195-.102.416-.153.662-.153.785 0 1.177.372 1.177 1.116v1.177h1.178z" id="Fill-32" fill="#264092" mask="url(#mask-8)"/><path id="Fill-33" fill="#264092" mask="url(#mask-8)" d="M30.898 33.244v-.862h2.624v.862h-.769v4.302h-1.085v-4.302z"/><path d="M33.56 35.576v-.846h.586c.472 0 .708-.195.708-.585v-.901H33.06v-.862h3.67v.862h-.8v.962c0 .344-.086.633-.257.866-.172.233-.42.38-.743.443a.493.493 0 01-.116.015l1.578 2.016h-1.308l-1.524-1.97z" id="Fill-34" fill="#264092" mask="url(#mask-8)"/><path d="M41.41 32.382v.862h-.77v4.302h-1.092v-2.771h-.539c-.349 0-.615.079-.797.235-.182.157-.273.384-.273.681 0 .626.27.939.808.939.057 0 .1-.002.131-.008v.901c-.123.01-.226.015-.308.015-.544 0-.967-.17-1.27-.512-.302-.341-.454-.788-.454-1.342 0-.544.18-.978.54-1.301.358-.323.89-.485 1.592-.485h.57v-.654H36.27v-.862h5.141z" id="Fill-35" fill="#264092" mask="url(#mask-8)"/><path d="M11.027 39.453v.269h-.3v1.603h-.338V40.23a.43.43 0 00-.088-.008c-.093 0-.162.025-.207.075-.046.05-.068.13-.068.239v.19h-.335v-.195c0-.186-.065-.278-.196-.278a.196.196 0 00-.164.081c-.042.053-.063.135-.063.245 0 .144.04.258.115.342.077.084.193.126.348.126.045 0 .08-.002.105-.006v.273a1.44 1.44 0 01-.145.008c-.229 0-.41-.069-.547-.207a.74.74 0 01-.205-.542.65.65 0 01.14-.434.478.478 0 01.382-.164c.11 0 .2.023.268.071a.296.296 0 01.13.187c.05-.183.19-.275.422-.275.034 0 .07.005.108.014v-.25H8.744v-.269h2.283z" id="Fill-36" fill="#1B2133" mask="url(#mask-8)"/><path d="M11.504 39.453h.3v.269h-.3v1.603h-.33v-1.603h-.3v-.269h.273l-.207-.306a.26.26 0 00-.23-.131.62.62 0 00-.167.026v-.281c.079-.013.143-.02.192-.02a.538.538 0 01.474.258l.295.454z" id="Fill-37" fill="#1B2133" mask="url(#mask-8)"/><path d="M14.06 39.722h-1.04v.35a.442.442 0 01.312-.123c.164 0 .297.05.397.15.1.101.15.23.15.39a.524.524 0 01-.17.41.628.628 0 01-.434.153.489.489 0 01-.065-.003v-.269a.313.313 0 00.051.003.273.273 0 00.206-.08.288.288 0 00.078-.21.28.28 0 00-.073-.198.249.249 0 00-.194-.079.242.242 0 00-.184.078.274.274 0 00-.074.2v.831h-.335v-.364a.438.438 0 01-.312.12.518.518 0 01-.547-.539c0-.172.057-.309.171-.412a.628.628 0 01.433-.153c.028 0 .05.001.065.003v.27a.313.313 0 00-.05-.003.271.271 0 00-.284.29c0 .078.024.145.072.198a.253.253 0 00.197.08.242.242 0 00.182-.079.28.28 0 00.073-.2v-.814H11.65v-.269h2.408v.27z" id="Fill-38" fill="#1B2133" mask="url(#mask-8)"/><path d="M15.872 38.974v.3a3.3 3.3 0 00-.574-.198 2.156 2.156 0 00-.49-.074.273.273 0 00-.2.07.259.259 0 00-.07.19v.19h.302v.27h-.301v1.603h-.332v-1.602h-.301v-.27h.3v-.195c0-.161.054-.291.159-.39.104-.097.25-.146.435-.146.166 0 .333.02.499.063.166.043.357.106.573.189" id="Fill-39" fill="#1B2133" mask="url(#mask-8)"/><path d="M16.087 40.168h-.709c-.083 0-.125.032-.125.096 0 .065.032.12.097.165a1.1 1.1 0 01.252-.028c.164 0 .296.039.396.119a.362.362 0 01.15.292c0 .068-.01.122-.03.162h-.326a.268.268 0 00.034-.145c0-.044-.02-.08-.06-.111a.286.286 0 00-.173-.045.415.415 0 00-.249.065.197.197 0 00-.088.165.22.22 0 00.103.19c.07.049.178.073.325.073.1 0 .226-.018.377-.054v.276a1.872 1.872 0 01-.394.048c-.24 0-.424-.054-.55-.16a.48.48 0 01-.193-.376c0-.146.062-.266.184-.36-.13-.076-.195-.181-.195-.315 0-.102.037-.181.112-.236a.482.482 0 01.291-.082h.442v-.184h-1.072v-.27h1.693v.27h-.292v.445z" id="Fill-40" fill="#1B2133" mask="url(#mask-8)"/><path d="M18.081 39.453v.269h-.301v1.603h-.332v-1.047h-.226c-.29 0-.434.126-.434.377 0 .122.028.216.085.284.056.068.142.102.255.102a.34.34 0 00.054-.003v.278a1.124 1.124 0 01-.102.006.588.588 0 01-.46-.186.697.697 0 01-.167-.483c0-.197.064-.354.191-.473.128-.118.315-.177.561-.177h.243v-.281h-1.222v-.269h1.855z" id="Fill-41" fill="#1B2133" mask="url(#mask-8)"/><path d="M17.468 39.185a.198.198 0 01-.057-.143.197.197 0 01.202-.202.2.2 0 01.204.202c0 .056-.02.104-.06.143a.197.197 0 01-.144.058.193.193 0 01-.145-.058" id="Fill-42" fill="#1B2133" mask="url(#mask-8)"/><path d="M19.301 40.295h.502v-.573h-.502v.573zm-.67-.573v-.269h1.798v.269h-.3v1.603h-.326v-.76h-.502v.36h-.284l-.091-.201a.753.753 0 01-.079-.259c0-.081.041-.132.125-.153v-.59h-.341z" id="Fill-43" fill="#1B2133" mask="url(#mask-8)"/><path d="M20.946 40.295h.502v-.573h-.502v.573zm-.67-.573v-.269h1.798v.269h-.3v1.603h-.326v-.76h-.502v.36h-.284l-.091-.201a.753.753 0 01-.079-.259c0-.081.041-.132.125-.153v-.59h-.341z" id="Fill-44" fill="#1B2133" mask="url(#mask-8)"/><path d="M25.033 39.722h-1.038v.35a.442.442 0 01.312-.123c.164 0 .297.05.397.15.1.101.15.23.15.39a.524.524 0 01-.171.41.628.628 0 01-.433.153.489.489 0 01-.065-.003v-.269a.313.313 0 00.05.003.273.273 0 00.207-.08.288.288 0 00.078-.21.285.285 0 00-.073-.198.249.249 0 00-.194-.079.242.242 0 00-.184.078.274.274 0 00-.074.2v.831h-.335v-.364a.438.438 0 01-.312.12.518.518 0 01-.547-.539.53.53 0 01.17-.412.628.628 0 01.434-.153c.028 0 .05.001.065.003v.27a.313.313 0 00-.051-.003.27.27 0 00-.205.081.284.284 0 00-.08.208c0 .08.026.146.074.2a.253.253 0 00.197.078.238.238 0 00.18-.078.277.277 0 00.075-.2v-.814h-1.035v-.269h2.408v.27z" id="Fill-45" fill="#1B2133" mask="url(#mask-8)"/><path d="M25.052 40.573v-.264h.204c.195 0 .293-.078.293-.235v-.352h-.67v-.269h1.29v.27h-.288v.371a.47.47 0 01-.107.32.445.445 0 01-.297.145.115.115 0 01-.038.005l.59.761h-.4l-.577-.752z" id="Fill-46" fill="#1B2133" mask="url(#mask-8)"/><path d="M26.956 40.35v-.628h-.404v.627c0 .155.067.233.2.233.136 0 .204-.078.204-.233zm1.341-.897v.27h-.3v1.602h-.332v-1.603h-.38v.602c0 .175-.047.31-.143.401-.093.092-.226.137-.396.137-.35 0-.525-.177-.525-.533v-.607h-.204v-.269h2.28z" id="Fill-47" fill="#1B2133" mask="url(#mask-8)"/><path d="M28.774 39.453h.303v.269h-.3v1.603h-.332v-1.603h-.301v-.269h.298v-.196a.243.243 0 00-.064-.18.232.232 0 00-.171-.064c-.15 0-.224.082-.224.244v.063h-.335v-.074c0-.17.053-.299.159-.386a.609.609 0 01.4-.13c.162 0 .298.043.405.129.108.086.162.214.162.384v.21z" id="Fill-48" fill="#1B2133" mask="url(#mask-8)"/><path d="M29.851 40.712a.39.39 0 00.28-.099c.068-.067.103-.162.103-.287v-.604h-.43a.442.442 0 01.064.25c0 .23-.13.387-.39.47a.353.353 0 00.13.196.397.397 0 00.243.074m-.05.292a.65.65 0 01-.473-.194c-.132-.13-.212-.31-.24-.54.301-.048.451-.152.451-.313a.33.33 0 00-.085-.235h-.53v-.269h1.942v.27h-.3v1.602h-.332v-.508a.39.39 0 01-.173.136.647.647 0 01-.26.051" id="Fill-49" fill="#1B2133" mask="url(#mask-8)"/><path d="M31.383 40.295h.502v-.573h-.502v.573zm-.669-.573v-.269h1.798v.269h-.301v1.603h-.326v-.76h-.502v.36h-.284l-.09-.201a.761.761 0 01-.08-.259c0-.081.042-.132.125-.153v-.59h-.34z" id="Fill-50" fill="#1B2133" mask="url(#mask-8)"/><path id="Fill-51" fill="#1B2133" mask="url(#mask-8)" d="M32.642 42h-.4l-.343-.488h.337z"/><path id="Fill-52" fill="#1B2133" mask="url(#mask-8)" d="M33.616 40.588h6.618v-.287h-6.618z"/><path id="Fill-53" fill="#1B2133" mask="url(#mask-8)" d="M1.271 40.588h6.618v-.287H1.271z"/></g></g></g></g></svg>