<?xml version="1.0" encoding="UTF-8"?>
<svg width="24px" height="24px" viewBox="0 0 24 24" version="1.1" xmlns="http://www.w3.org/2000/svg" xmlns:xlink="http://www.w3.org/1999/xlink">
    <title>Icons/others/karma_yogi</title>
    <g id="Icons/others/karma_yogi" stroke="none" stroke-width="1" fill="none" fill-rule="evenodd">
        <g id="Icons/others/karma">
            <rect id="Size" fill="#D8D8D8" opacity="0" x="0" y="0" width="24" height="24"></rect>
            <path d="M12,22 C6.48636364,22 2,17.5136364 2,12 C2,6.48636364 6.48636364,2 12,2 C13.3490909,2 14.6590909,2.26454545 15.8927273,2.78636364 C16.3554545,2.98181818 16.5718182,3.51545455 16.3754545,3.97727273 C16.1809091,4.44 15.6490909,4.65636364 15.1845455,4.46090909 C14.1763636,4.03454545 13.1045455,3.81818182 12,3.81818182 C7.48909091,3.81818182 3.81818182,7.48909091 3.81818182,12 C3.81818182,16.5109091 7.48909091,20.1818182 12,20.1818182 C16.5109091,20.1818182 20.1818182,16.5109091 20.1818182,12 C20.1818182,11.1690909 20.0581818,10.3509091 19.8145455,9.56727273 C19.6645455,9.08727273 19.9327273,8.57818182 20.4118182,8.42909091 C20.8909091,8.27818182 21.4009091,8.54727273 21.55,9.02636364 C21.8481818,9.98545455 22,10.9854545 22,12 C22,17.5136364 17.5136364,22 12,22" id="Fill-1" fill="#0074B6"></path>
            <path d="M12,18 C11.19,18 10.4048571,17.8414286 9.66428571,17.5277143 C9.228,17.3434286 9.024,16.8402857 9.20914286,16.4048571 C9.39257143,15.9685714 9.89742857,15.7654286 10.332,15.9488571 C10.86,16.1725714 11.4214286,16.2857143 12,16.2857143 C14.3631429,16.2857143 16.2857143,14.3631429 16.2857143,12 C16.2857143,9.63685714 14.3631429,7.71428571 12,7.71428571 C9.63685714,7.71428571 7.71428571,9.63685714 7.71428571,12 C7.71428571,12.4345714 7.77942857,12.8631429 7.90714286,13.2745714 C8.04771429,13.7271429 7.79485714,14.2071429 7.34314286,14.3477143 C6.89228571,14.4874286 6.41057143,14.2362857 6.27,13.7837143 C6.09085714,13.2077143 6,12.6077143 6,12 C6,8.69142857 8.69142857,6 12,6 C15.3085714,6 18,8.69142857 18,12 C18,15.3085714 15.3085714,18 12,18" id="Fill-3" fill="#F69953"></path>
        </g>
    </g>
</svg>