<svg width="120" height="49" viewBox="0 0 120 49" fill="none" xmlns="http://www.w3.org/2000/svg">
<path d="M6.17392 47.9009C8.88298 47.2497 16.6914 45.6082 22.1096 44.07C27.5277 42.5319 32.6271 41.4024 38.0452 38.853C43.4633 36.3036 48.5627 31.0087 53.9809 29.0736C59.399 27.1385 64.4984 29.5299 69.9165 27.47C75.3346 25.4102 80.4341 18.0065 85.8522 16.9566C91.2703 15.9068 96.3697 24.0071 101.788 21.2945C107.206 18.5818 116.644 4.45006 119.353 1L120 48.8587H6.17392V47.9009Z" fill="url(#paint0_linear_742_1978)" fill-opacity="0.3"/>
<path d="M1 47.5652C3.73293 46.9186 11.6102 45.2889 17.0761 43.7617C22.542 42.2346 27.8711 41.6887 33.337 39.1576C38.8028 36.6265 44.9783 33.9837 49.2283 28.8727C54.6941 26.9514 59.8385 29.3257 65.3043 27.2806C70.7702 25.2354 70.663 27.8424 81.8424 17.1685C86.8315 14.2609 92.1902 21.6957 97.4565 21.1492C104.478 21.0489 115.974 4.42536 118.707 1" stroke="#FFA730" stroke-width="2"/>
<defs>
<linearGradient id="paint0_linear_742_1978" x1="63.087" y1="1" x2="63.087" y2="48.8587" gradientUnits="userSpaceOnUse">
<stop stop-color="#FFA730"/>
<stop offset="1" stop-color="#FFA730" stop-opacity="0"/>
</linearGradient>
</defs>
</svg>
