<?xml version="1.0" encoding="UTF-8"?>
<svg width="361px" height="248px" viewBox="0 0 361 248" version="1.1" xmlns="http://www.w3.org/2000/svg" xmlns:xlink="http://www.w3.org/1999/xlink">
    <title>login_header copy</title>
    <defs>
        <linearGradient x1="50%" y1="16.4499934%" x2="50%" y2="94.0417226%" id="linearGradient-1">
            <stop stop-color="#FFFFFF" offset="0%"></stop>
            <stop stop-color="#FFC092" offset="100%"></stop>
        </linearGradient>
    </defs>
    <g id="Page-1" stroke="none" stroke-width="1" fill="none" fill-rule="evenodd">
        <g id="login_header-copy">
            <g id="Bg">
                <path d="M30.7144313,176.293071 C55.8629817,190.812593 67.0607651,220.227457 59.6277215,247.010713 L2.27373242e-13,247.010101 L-0.000664073982,167.93823 C10.4490822,168.00196 21.0217755,170.697014 30.7144313,176.293071 Z M347.239198,109.53885 C352.418257,112.528981 357.01896,116.133602 361.001034,120.20516 L360.999648,218.858698 L353.631978,214.604875 C334.088723,228.929218 307.002969,231.191003 284.503214,218.200763 C254.21677,200.714876 243.708684,162.214966 261.032748,132.208808 C278.356812,102.202649 316.952754,92.0529635 347.239198,109.53885 Z M361,0.0101010101 L361.00037,82.7938744 C352.635124,78.3628837 343.605091,75.225398 334.230163,73.5342117 C339.453926,50.5309786 328.856328,26.5333294 308.075037,14.3074414 C287.50156,2.2038124 261.68127,4.42288897 244.104237,19.7322358 L243.574137,20.2001609 L194.670872,63.9096378 C200.332055,80.0427094 199.256799,98.2728849 190.160969,114.027325 C173.373323,143.10438 135.621582,152.737215 105.840095,135.542865 C76.0586075,118.348515 65.5250171,80.8381308 82.3126623,51.7610763 C98.364833,23.9579011 133.584444,13.9325448 162.675854,28.1395109 L194.153648,0.00969826424 L361,0.0101010101 Z M85.2570772,1.62335529 C70.9890041,10.0690573 59.3061473,22.2704768 51.4827227,36.8968398 C35.6441416,27.1730058 16.3488503,26.2578381 -0.00127806526,33.6075758 L2.27373242e-13,0.0101010101 L83.0725569,0.00841732815 C83.8063971,0.536215021 84.5346429,1.07453619 85.2570772,1.62335529 Z" id="Combined-Shape" fill="#F58634" fill-rule="nonzero" opacity="0.254789807"></path>
                <rect id="Mask" fill="#D8D8D8" opacity="0" x="0" y="0.0101010101" width="361" height="247"></rect>
                <path d="M155,199 C181.895132,199 203.729336,220.449539 203.997503,247.010227 L201.995,247.01 L201.993705,246.736139 C201.578746,221.411162 180.702284,201 155,201 C129.205212,201 108.271046,221.558348 108.002611,247.009767 L106.004,247.01 L106.006565,246.702931 C106.439273,220.284293 128.208667,199 155,199 Z" id="Combined-Shape" fill="#F69953" opacity="0.200000003"></path>
                <path d="M296,69.8181818 C315.329966,69.8181818 331,85.3299324 331,104.464646 C331,123.599361 315.329966,139.111111 296,139.111111 C276.670034,139.111111 261,123.599361 261,104.464646 C261,85.3299324 276.670034,69.8181818 296,69.8181818 Z M296,71.8181818 C277.770084,71.8181818 263,86.4390726 263,104.464646 C263,122.49022 277.770084,137.111111 296,137.111111 C314.229916,137.111111 329,122.49022 329,104.464646 C329,86.4390726 314.229916,71.8181818 296,71.8181818 Z" id="Oval" fill="#F58634" fill-rule="nonzero" opacity="0.200000003"></path>
                <path d="M207,159.89899 C218.045695,159.89899 227,168.762847 227,179.69697 C227,190.631092 218.045695,199.494949 207,199.494949 C195.954305,199.494949 187,190.631092 187,179.69697 C187,168.762847 195.954305,159.89899 207,159.89899 Z M207,161.89899 C197.054355,161.89899 189,169.871988 189,179.69697 C189,189.521952 197.054355,197.494949 207,197.494949 C216.945645,197.494949 225,189.521952 225,179.69697 C225,169.871988 216.945645,161.89899 207,161.89899 Z" id="Oval-Copy-3" fill="#F69953" fill-rule="nonzero" opacity="0.200000003"></path>
            </g>
            <rect id="Rectangle" fill="url(#linearGradient-1)" opacity="0.363978795" x="0" y="0" width="361" height="247"></rect>
        </g>
    </g>
</svg>