<?xml version="1.0" encoding="UTF-8"?>
<svg width="412px" height="801px" viewBox="0 0 412 801" version="1.1" xmlns="http://www.w3.org/2000/svg" xmlns:xlink="http://www.w3.org/1999/xlink">
    <title>Illustrations/Mobile/Login_background</title>
    <defs>
        <rect id="path-1" x="0" y="0" width="412" height="801"></rect>
        <linearGradient x1="50%" y1="15.4404028%" x2="50%" y2="97.0334353%" id="linearGradient-3">
            <stop stop-color="#DBEAFF" offset="0%"></stop>
            <stop stop-color="#348BF5" offset="100%"></stop>
        </linearGradient>
        <path d="M839.268556,504.360345 C898.860291,504.360345 947.168937,552.659058 947.168937,612.23854 C947.168937,646.28363 931.394988,676.645276 906.755451,696.416536 L940.051412,806.51677 C968.043758,900.087169 916.009269,998.644033 823.39972,1028.56849 L820.580991,1029.45421 L818.709177,1030.00387 C756.889321,1047.79427 690.203766,1031.10924 644.040369,986.172956 C670.297851,974.731689 692.906572,956.297737 709.398099,932.883728 C742.069966,958.894402 787.861249,960.648767 822.428253,937.214163 C856.649588,914.013906 872.001906,871.460096 860.58529,831.826983 L860.23113,830.626897 L826.59625,719.380605 C772.976093,713.109028 731.368176,667.531809 731.368176,612.23854 C731.368176,552.659058 779.676822,504.360345 839.268556,504.360345 Z M576.691777,739.527244 C636.213526,739.527244 684.465436,787.022253 684.465436,845.610316 C684.465436,904.198379 636.213526,951.693388 576.691777,951.693388 C554.680712,951.693388 534.210809,945.198394 517.152265,934.049267 L422.529998,998.216566 C342.010677,1052.46679 232.390158,1033.26665 175.734351,955.505567 L174.033805,953.131261 L172.940957,951.543467 C137.193269,898.995004 132.767631,831.555849 161.471032,774.866967 C180.344836,796.014973 204.756669,811.654757 232.043302,820.080083 C217.213187,858.475382 229.474631,901.902108 262.305154,927.259397 C294.807373,952.363114 339.990626,953.980642 374.231187,931.392346 L375.265405,930.700443 L470.882971,865.878433 C469.593482,859.317845 468.918118,852.541713 468.918118,845.610316 C468.918118,787.022253 517.170029,739.527244 576.691777,739.527244 Z M480.691,893.871 L481.162153,894.76939 C486.550364,904.914499 493.591047,914.155768 502.024209,922.110404 L502.446,922.504 L502.03041,922.114217 C493.664637,914.201938 486.594005,904.973411 481.162161,894.766853 L480.691,893.871 Z M201.749351,258.901127 C187.648516,284.219472 180.68459,312.972315 181.617109,342.023665 C139.747813,340.880591 102.01142,367.445391 88.486649,407.583509 C75.0971253,447.320245 88.519271,491.214008 121.612338,516.352741 L122.621172,517.108756 L216.675183,586.719507 C232.699088,577.21399 251.354842,571.765123 271.267478,571.765123 C330.999166,571.765123 379.421267,620.794709 379.421267,681.275769 C379.421267,741.756828 330.999166,790.786414 271.267478,790.786414 C211.53579,790.786414 163.11369,741.756828 163.11369,681.275769 C163.11369,671.974062 164.259019,662.943218 166.414671,654.319934 L73.3330153,585.453954 C-5.58649906,526.717033 -23.4390118,414.996768 32.6492988,334.13999 L34.3715904,331.699318 L35.537505,330.110186 C74.26302,277.920652 137.690472,250.694608 201.749351,258.901127 Z M858.449021,718.417956 L856.770559,718.704791 C851.074072,719.633747 845.22773,720.116734 839.268556,720.116734 C836.356201,720.116734 833.470796,720.001375 830.616661,719.774978 C839.983916,720.538129 849.33698,720.064451 858.449021,718.417956 Z M204.66879,594.984011 L204.547167,595.080112 C195.423935,602.306022 187.548456,610.947787 181.191223,620.641292 C187.620089,610.869176 195.558301,602.203067 204.66879,594.984011 Z M689.27312,192.949862 C735.419925,192.949862 774.916411,221.391417 791.152381,261.682904 L908.170054,261.683263 C1007.50754,262.060393 1088.1018,341.662789 1089.96762,440.50694 L1090,443.508046 L1089.98467,445.490434 C1089.1245,510.85545 1053.24916,570.818465 995.894158,602.509772 C992.475112,573.597306 981.174647,546.177482 963.224948,523.240112 C998.211196,499.114661 1013.42112,455.063083 1000.76205,414.523656 C988.229576,374.389624 951.267205,346.935172 909.278624,346.410358 L908.004724,346.402712 L789.946089,346.403728 C773.020809,385.167003 734.314764,412.262588 689.27312,412.262588 C628.643783,412.262588 579.493993,363.167762 579.493993,302.606225 C579.493993,242.044688 628.643783,192.949862 689.27312,192.949862 Z M600.585466,7.49946612 L603.41929,8.3594006 L605.279501,8.96173704 C666.509021,29.1496501 712.092477,80.0429228 724.604125,142.371341 C696.382213,136.952975 667.187193,139.248016 640.202298,149.00623 C628.05943,109.563331 591.207076,82.4600713 549.249811,82.1147392 C507.712118,81.7728603 470.729465,107.735097 457.560242,146.32647 L457.168483,147.499758 L421.499311,256.560565 C444.068906,276.062205 458.310812,304.638702 458.310812,336.481915 C458.310812,395.253102 409.797235,442.896562 349.952705,442.896562 C290.108175,442.896562 241.594598,395.253102 241.594598,336.481915 C241.594598,280.286053 285.949645,234.264062 342.154029,230.338643 L377.499164,122.30641 C407.799578,30.7162997 507.009837,-20.0853116 600.585466,7.49946612 Z M798.697,293.742 L798.818739,295.396289 C798.973608,297.779649 799.052247,300.183763 799.052247,302.606225 C799.052247,306.751965 798.821927,310.843972 798.373371,314.870174 C799.117537,308.265632 799.2579,301.607473 798.792037,294.979785 L798.697,293.742 Z" id="path-4"></path>
        <filter x="-3.4%" y="-3.3%" width="106.9%" height="107.2%" filterUnits="objectBoundingBox" id="filter-5">
            <feOffset dx="0" dy="3" in="SourceAlpha" result="shadowOffsetOuter1"></feOffset>
            <feGaussianBlur stdDeviation="12" in="shadowOffsetOuter1" result="shadowBlurOuter1"></feGaussianBlur>
            <feColorMatrix values="0 0 0 0 0.219607843   0 0 0 0 0.203921569   0 0 0 0 0.203921569  0 0 0 0.1 0" type="matrix" in="shadowBlurOuter1"></feColorMatrix>
        </filter>
    </defs>
    <g id="Illustrations/Mobile/Login_background" stroke="none" stroke-width="1" fill="none" fill-rule="evenodd">
        <mask id="mask-2" fill="white">
            <use xlink:href="#path-1"></use>
        </mask>
        <use id="Mask" fill="#D8D8D8" opacity="0" xlink:href="#path-1"></use>
        <rect id="Rectangle" fill="#FFFFFF" mask="url(#mask-2)" x="-164" y="0" width="994" height="801"></rect>
        <rect id="Rectangle" fill="#FFFFFF" mask="url(#mask-2)" x="-164" y="0" width="994" height="801"></rect>
        <g id="Bg" opacity="0.300000012" mask="url(#mask-2)">
            <g transform="translate(-252.000000, -562.000000)">
                <rect id="Rectangle" stroke="none" fill="url(#linearGradient-3)" fill-rule="evenodd" opacity="0.702135359" x="88" y="561" width="994" height="801"></rect>
                <circle id="Oval" stroke="#0074B6" stroke-width="2" fill="none" opacity="0.2" cx="575.5" cy="535.5" r="68.5"></circle>
                <g id="Combined-Shape" stroke="none" fill="none">
                    <use fill="black" fill-opacity="1" filter="url(#filter-5)" xlink:href="#path-4"></use>
                    <use fill="#FFFFFF" fill-rule="evenodd" xlink:href="#path-4"></use>
                </g>
                <circle id="Oval-Copy-3" stroke="#0074B6" stroke-width="2" fill="none" opacity="0.2" cx="518.5" cy="667.5" r="23.5"></circle>
                <circle id="Oval-Copy" stroke="#0074B6" stroke-width="2" fill="none" opacity="0.2" cx="180" cy="735" r="129"></circle>
                <circle id="Oval-Copy-2" stroke="#0074B6" stroke-width="2" fill="none" opacity="0.2" cx="678.5" cy="794.5" r="79.5"></circle>
            </g>
        </g>
    </g>
</svg>