<?xml version="1.0" encoding="UTF-8"?>
<svg width="400px" height="248px" viewBox="0 0 400 248" version="1.1" xmlns="http://www.w3.org/2000/svg" xmlns:xlink="http://www.w3.org/1999/xlink">
    <title>login_header</title>
    <defs>
        <rect id="path-1" x="0" y="0.0101010101" width="361" height="247"></rect>
        <filter x="-118.1%" y="-94.1%" width="336.2%" height="288.2%" filterUnits="objectBoundingBox" id="filter-3">
            <feGaussianBlur stdDeviation="50" in="SourceGraphic"></feGaussianBlur>
        </filter>
        <linearGradient x1="50%" y1="16.4499934%" x2="50%" y2="94.0417226%" id="linearGradient-4">
            <stop stop-color="#FFFFFF" offset="0%"></stop>
            <stop stop-color="#FFC092" offset="100%"></stop>
        </linearGradient>
    </defs>
    <g id="Page-1" stroke="none" stroke-width="1" fill="none" fill-rule="evenodd">
        <g id="Login" transform="translate(1.000000, -24.000000)">
            <g id="login_header" transform="translate(-1.000000, 24.000000)">
                <g id="Bg">
                    <mask id="mask-2" fill="white">
                        <use xlink:href="#path-1"></use>
                    </mask>
                    <use id="Mask" fill="#D8D8D8" opacity="0" xlink:href="#path-1"></use>
                    <ellipse id="Oval" stroke="#F58634" stroke-width="2" opacity="0.2" mask="url(#mask-2)" cx="296" cy="104.464646" rx="34" ry="33.6464646"></ellipse>
                    <path d="M351.428904,221.272727 C385.722729,221.272727 413.523368,248.819552 413.523368,282.800282 C413.523368,302.217907 404.445547,319.53465 390.265681,330.811037 L409.427377,393.605477 C425.536401,446.972682 395.591615,503.183883 342.296712,520.251082 L340.674591,520.756245 L339.597401,521.069741 C304.021337,531.216366 265.645163,521.700181 239.079071,496.071094 C254.189715,489.545649 267.200572,479.031977 276.691109,465.677964 C295.493101,480.512966 321.845048,481.513556 341.737653,468.147798 C361.431332,454.915697 370.266278,430.645437 363.696248,408.040975 L363.492437,407.356515 L344.136581,343.908028 C313.279117,340.331227 289.33444,314.336514 289.33444,282.800282 C289.33444,248.819552 317.135078,221.272727 351.428904,221.272727 Z M200.266057,355.89899 C234.574413,355.89899 262.38683,382.991234 262.38683,416.411211 C262.38683,449.831187 234.574413,476.923431 200.266057,476.923431 C187.57881,476.923431 175.779898,473.218502 165.947319,466.858727 L111.407156,503.461321 C64.9957922,534.406895 1.81048884,523.454692 -30.8459372,479.097986 L-31.8261324,477.743627 L-32.4560509,476.837913 C-53.0610298,446.863063 -55.6119688,408.39422 -39.0673189,376.057579 C-28.1884524,388.120888 -14.1174635,397.04218 1.61056075,401.848179 C-6.93752261,423.74974 0.129977783,448.521342 19.0535026,462.985722 C37.7877922,477.305459 63.8314346,478.228134 83.5677049,465.343251 L84.163829,464.948573 L139.277622,427.971586 C138.534493,424.229594 138.145284,420.364678 138.145284,416.411211 C138.145284,382.991234 165.957701,355.89899 200.266057,355.89899 Z M-15.5189224,80.6244096 C-23.6525852,95.0726387 -27.6695262,111.480806 -27.1316292,128.05932 C-51.2827332,127.407011 -73.0498908,142.566545 -80.8512678,165.471862 C-88.574631,188.148125 -80.8324507,213.196647 -61.7436626,227.542378 L-61.1617456,227.973807 L-6.90849698,267.697529 C2.33423485,262.273408 13.0949514,259.164144 24.5806184,259.164144 C59.0351317,259.164144 86.9660334,287.143487 86.9660334,321.657756 C86.9660334,356.172026 59.0351317,384.151369 24.5806184,384.151369 C-9.87389487,384.151369 -37.8047965,356.172026 -37.8047965,321.657756 C-37.8047965,316.349613 -37.1441443,311.196041 -35.9007141,306.275049 L-89.5922073,266.975845 C-135.114669,233.45689 -145.412379,169.70233 -113.059444,123.560403 L-112.065989,122.167603 L-111.393465,121.260746 C-89.0557607,91.4781385 -52.4694515,75.9412578 -15.5189224,80.6244096 Z M-14.6680559,273.078915 L-14.9621323,273.316185 C-19.7758569,277.26059 -23.9551336,281.894748 -27.373616,287.050397 C-23.8636008,281.773113 -19.5733578,277.060784 -14.6680559,273.078915 Z M265.321997,43.0909091 C291.940085,43.0909091 314.722178,59.3627616 324.087276,82.4141343 L391.584534,82.4142777 C448.883661,82.6300392 495.371456,128.171717 496.447683,184.721879 L496.46636,186.438854 L496.457515,187.573007 C495.961362,224.969274 475.268005,259.274979 442.184913,277.406032 C440.212764,260.864794 433.694512,245.177517 423.340897,232.054718 C443.52141,218.2522 452.294685,193.049657 444.992776,169.856468 C437.763885,146.89521 416.443519,131.188122 392.223971,130.887869 L391.48917,130.883495 L323.391319,130.884366 C313.628535,153.061239 291.302477,168.562878 265.321997,168.562878 C230.350224,168.562878 202,140.475021 202,105.826894 C202,71.1787661 230.350224,43.0909091 265.321997,43.0909091 Z M213.288346,-62.4266608 L214.916757,-61.9353903 L215.985698,-61.5912825 C251.170259,-50.0581643 277.364061,-20.983434 284.553679,14.6240608 C268.33641,11.5286117 251.55996,12.8397422 236.053523,18.4144953 C229.075818,-4.11877075 207.899204,-19.6025454 183.789135,-19.7998296 C159.920166,-19.995141 138.668677,-5.16321941 131.101194,16.88358 L130.876076,17.5538652 L110.379345,79.8590151 C123.348609,91.0000736 131.532497,107.325497 131.532497,125.517157 C131.532497,159.092448 103.654948,186.310598 69.2662487,186.310598 C34.8775491,186.310598 7,159.092448 7,125.517157 C7,93.4128158 32.4883994,67.1207972 64.7857824,64.8786858 L85.0953794,3.16120113 C102.507026,-49.1631558 159.516611,-78.185521 213.288346,-62.4266608 Z" id="Combined-Shape" fill="#F58634" fill-rule="nonzero" opacity="0.254789807" mask="url(#mask-2)" transform="translate(182.287052, 229.174458) rotate(-330.000000) translate(-182.287052, -229.174458) "></path>
                    <ellipse id="Oval-Copy-3" stroke="#CACACA" stroke-width="2" opacity="0.2" mask="url(#mask-2)" cx="207" cy="179.69697" rx="19" ry="18.7979798"></ellipse>
                    <ellipse id="Oval-Copy" stroke="#F58634" stroke-width="2" opacity="0.2" mask="url(#mask-2)" cx="25" cy="-60.8484848" rx="65" ry="64.3333333"></ellipse>
                    <ellipse id="Oval-Copy-2" stroke="#F58634" stroke-width="2" opacity="0.2" mask="url(#mask-2)" cx="155" cy="248" rx="48" ry="47.5050505"></ellipse>
                    <polyline id="Path-8" fill="#FAC39A" opacity="0.33077567" filter="url(#filter-3)" mask="url(#mask-2)" points="203.539035 247.010101 203.539035 219.675804 189 205.297119 189 186.598196 205.982627 142.967375 220.203054 131.066705 225.154159 131.066705 222.869101 112.281963 226.87178 95.3202045 244.699611 87.6363636 270.238694 92.1446616 275.358417 106.740264 277.744401 123.549263 275.358417 134.337103 294.863248 142.967375 312.691585 176.529545 316 199.543604 312.691585 213.033451 299.815444 219.675804 299.815444 247.010101"></polyline>
                </g>
                <rect id="Rectangle" fill="url(#linearGradient-4)" opacity="0.363978795" x="0" y="0" width="400" height="248"></rect>
            </g>
        </g>
    </g>
</svg>
