<?xml version="1.0" encoding="UTF-8"?>
<svg width="40px" height="40px" viewBox="0 0 40 40" version="1.1" xmlns="http://www.w3.org/2000/svg" xmlns:xlink="http://www.w3.org/1999/xlink">
    <title>nano</title>
    <g id="Symbols" stroke="none" stroke-width="1" fill="none" fill-rule="evenodd">
        <g id="Learn/content/nano" transform="translate(-16.000000, -144.000000)">
            <g id="nano" transform="translate(16.000000, 144.000000)">
                <rect id="Rectangle" fill-opacity="0.6" fill="#000000" x="0" y="0" width="40" height="40" rx="8"></rect>
                <g id="Icons/Av/play" transform="translate(8.000000, 8.000000)">
                    <rect id="Size" fill="#D8D8D8" opacity="0" x="0" y="0" width="24" height="24"></rect>
                    <path d="M8,20 L16,20 C16.55,20 17,19.55 17,19 L17,6 C17,5.45 16.55,5 16,5 L8,5 C7.45,5 7,5.45 7,6 L7,19 C7,19.55 7.45,20 8,20 Z M3,18 L5,18 C5.55,18 6,17.55 6,17 L6,8 C6,7.45 5.55,7 5,7 L3,7 C2.45,7 2,7.45 2,8 L2,17 C2,17.55 2.45,18 3,18 Z M18,8 L18,17 C18,17.55 18.45,18 19,18 L21,18 C21.55,18 22,17.55 22,17 L22,8 C22,7.45 21.55,7 21,7 L19,7 C18.45,7 18,7.45 18,8 Z" id="Shape" fill="#FFFFFF"></path>
                </g>
            </g>
        </g>
    </g>
</svg>