<?xml version="1.0" encoding="UTF-8"?>
<svg width="356px" height="360px" viewBox="0 0 356 360" version="1.1" xmlns="http://www.w3.org/2000/svg" xmlns:xlink="http://www.w3.org/1999/xlink">
    <title>Group 19</title>
    <defs>
        <polygon id="path-1" points="0 0 356 0 356 356 0 356"></polygon>
        <polygon id="path-3" points="0 0 120 0 120 120 0 120"></polygon>
    </defs>
    <g id="Page-1" stroke="none" stroke-width="1" fill="none" fill-rule="evenodd">
        <g id="Group-19">
            <g id="Group-3">
                <mask id="mask-2" fill="white">
                    <use xlink:href="#path-1"></use>
                </mask>
                <g id="Clip-2"></g>
                <path d="M356.001973,178 C356.001973,276.307576 276.309549,356 178.001973,356 C79.6943964,356 -0.00197278007,276.307576 -0.00197278007,178 C-0.00197278007,79.6924236 79.6943964,0 178.001973,0 C276.309549,0 356.001973,79.6924236 356.001973,178" id="Fill-1" fill="#263238" mask="url(#mask-2)"></path>
            </g>
            <path d="M77.2204408,164 C74.8602293,164 72.5000179,163.103451 70.7011968,161.314284 C67.0996011,157.732018 67.0996011,151.924108 70.7011968,148.345774 C130.141363,89.2167644 226.858637,89.2206967 286.298803,148.341842 C289.900399,151.924108 289.900399,157.732018 286.298803,161.310352 C282.701161,164.892617 276.861911,164.892617 273.260315,161.310352 C221.007527,109.341941 135.992473,109.338008 83.7396848,161.314284 C81.9408637,163.103451 79.5806522,164 77.2204408,164" id="Fill-4" fill="#FFFFFF"></path>
            <path d="M108.196638,195 C105.84252,195 103.488401,194.105957 101.694224,192.321792 C98.1019255,188.749541 98.1019255,182.957868 101.694224,179.389538 C122.045322,159.148089 149.14726,148 178,148 C206.856683,148 233.954678,159.148089 254.305776,179.385617 C257.898075,182.957868 257.898075,188.749541 254.305776,192.317871 C250.717421,195.890122 244.893245,195.890122 241.300947,192.317871 C224.423849,175.534957 201.943397,166.292591 178,166.292591 C154.056603,166.292591 131.580094,175.534957 114.699053,192.321792 C112.904875,194.105957 110.550757,195 108.196638,195" id="Fill-6" fill="#FFFFFF"></path>
            <path d="M139.23792,226 C136.873234,226 134.508549,225.110091 132.706317,223.334175 C129.097894,219.778441 129.097894,214.013546 132.706317,210.461715 C144.787207,198.553323 160.872615,192 177.999752,192 C195.126889,192 211.216258,198.553323 223.297148,210.461715 C226.90161,214.013546 226.90161,219.778441 223.293187,223.334175 C219.688725,226.886006 213.838406,226.889909 210.229982,223.334175 C201.638687,214.868327 190.191549,210.20411 177.999752,210.20411 C165.807956,210.20411 154.364778,214.868327 145.769522,223.334175 C143.967291,225.110091 141.602606,226 139.23792,226" id="Fill-8" fill="#FFFFFF"></path>
            <path d="M187.192273,246.807727 C192.269242,251.884696 192.269242,260.115304 187.192273,265.192273 C182.115304,270.269242 173.884696,270.269242 168.807727,265.192273 C163.730758,260.115304 163.730758,251.884696 168.807727,246.807727 C173.884696,241.730758 182.115304,241.730758 187.192273,246.807727" id="Fill-10" fill="#FFFFFF"></path>
            <g id="Group-14" transform="translate(221.000000, 240.000000)">
                <mask id="mask-4" fill="white">
                    <use xlink:href="#path-3"></use>
                </mask>
                <g id="Clip-13"></g>
                <path d="M60.0019679,120.001968 C26.862147,120.001968 0,93.1354445 0,59.999016 C0,26.8625875 26.862147,0 60.0019679,0 C93.137853,0 120,26.8625875 120,59.999016 C120,93.1354445 93.137853,120.001968 60.0019679,120.001968 Z" id="Fill-12" fill="#407BFF" mask="url(#mask-4)"></path>
            </g>
            <line x1="257" y1="276" x2="305" y2="324" id="Stroke-15" stroke="#FFFFFF" stroke-width="2" stroke-linecap="round" stroke-linejoin="round"></line>
            <line x1="305" y1="276" x2="257" y2="324" id="Stroke-17" stroke="#FFFFFF" stroke-width="2" stroke-linecap="round" stroke-linejoin="round"></line>
        </g>
    </g>
</svg>