<?xml version="1.0" encoding="UTF-8"?>
<svg width="24px" height="24px" viewBox="0 0 24 24" version="1.1" xmlns="http://www.w3.org/2000/svg" xmlns:xlink="http://www.w3.org/1999/xlink">
    <title>Icons/File types/png</title>
    <g id="Icons/File-types/png" stroke="none" stroke-width="1" fill="none" fill-rule="evenodd">
        <rect id="Size" fill="#D8D8D8" opacity="0" x="0" y="0" width="24" height="24"></rect>
        <g id="Group">
            <rect id="Rectangle" x="0" y="0" width="24" height="24"></rect>
            <rect id="Rectangle" x="0" y="0" width="24" height="24"></rect>
            <polygon id="Path" fill="#EFEEEE" fill-rule="nonzero" points="5 2 5 22 16.9 22 22 17 22 2"></polygon>
            <polygon id="Path" fill="#ABABAB" fill-rule="nonzero" points="17 17 17 22 22 17"></polygon>
            <polygon id="Path" fill="#DEDEDD" fill-rule="nonzero" points="12 22 17 22 17 17"></polygon>
            <polygon id="Path" fill="#D2689A" fill-rule="nonzero" points="2 6 2 15 19 15 19 6"></polygon>
            <path d="M4.81005859,12.9833984 L4.81005859,11.2060547 L5.46289062,11.2060547 C6.01432292,11.2060547 6.45182292,11.0545247 6.77539062,10.7514648 C7.09895833,10.4484049 7.26074219,10.0587565 7.26074219,9.58251953 C7.26074219,9.10628255 7.10579427,8.73714193 6.79589844,8.47509766 C6.4860026,8.21305339 6.04964193,8.08203125 5.48681641,8.08203125 L5.48681641,8.08203125 L4,8.08203125 L4,12.9833984 L4.81005859,12.9833984 Z M5.33642578,10.5429688 L4.81005859,10.5429688 L4.81005859,8.75195312 L5.40136719,8.75195312 C6.07128906,8.75195312 6.40625,9.04020182 6.40625,9.61669922 C6.40625,9.91064453 6.31510417,10.1385091 6.1328125,10.300293 C5.95052083,10.4620768 5.68505859,10.5429688 5.33642578,10.5429688 L5.33642578,10.5429688 Z M8.7774414,12.9833984 L8.7774414,9.77050781 C8.7774414,9.42643229 8.76832682,9.20198568 8.75009765,9.09716797 L8.75009765,9.09716797 L8.77060547,9.09716797 C8.80934245,9.19514974 8.85833333,9.28971354 8.91757812,9.38085938 L8.91757812,9.38085938 L11.2588867,12.9833984 L12.1475586,12.9833984 L12.1475586,8.08203125 L11.3648437,8.08203125 L11.3648437,11.2402344 C11.3648437,11.5501302 11.376237,11.7700195 11.3990234,11.8999023 L11.3990234,11.8999023 L11.3853516,11.8999023 C11.3580078,11.8452148 11.2964844,11.7449544 11.2007812,11.5991211 L11.2007812,11.5991211 L8.93808594,8.08203125 L7.99130859,8.08203125 L7.99130859,12.9833984 L8.7774414,12.9833984 Z M15.3800781,13.0654297 C16.0067057,13.0654297 16.5752279,12.9264323 17.0856445,12.6484375 L17.0856445,12.6484375 L17.0856445,10.3208008 L15.2433594,10.3208008 L15.2433594,11.0043945 L16.2755859,11.0043945 L16.2755859,12.1699219 C16.0294922,12.2998047 15.7378255,12.3647461 15.4005859,12.3647461 C14.9083984,12.3647461 14.51875,12.2035319 14.2316406,11.8811035 C13.9445312,11.5586751 13.8009766,11.1160482 13.8009766,10.5532227 C13.8009766,10.0063477 13.9678874,9.5608724 14.301709,9.21679688 C14.6355306,8.87272135 15.0633464,8.70068359 15.5851562,8.70068359 C16.1046875,8.70068359 16.5524414,8.82600911 16.928418,9.07666016 L16.928418,9.07666016 L16.928418,8.23925781 C16.5569987,8.0797526 16.0989909,8 15.5543945,8 C14.7978841,8 14.1741048,8.24324544 13.6830566,8.72973633 C13.1920085,9.21622721 12.9464844,9.83886719 12.9464844,10.5976562 C12.9464844,11.3404948 13.170931,11.9375 13.6198242,12.3886719 C14.0687174,12.8398438 14.6554687,13.0654297 15.3800781,13.0654297 Z" id="PNG" fill="#FFFFFF" fill-rule="nonzero"></path>
        </g>
    </g>
</svg>