<svg xmlns="http://www.w3.org/2000/svg" xmlns:xlink="http://www.w3.org/1999/xlink" width="412" height="130" viewBox="0 0 412 130">
  <defs>
    <rect id="settings_w-a" width="412" height="130" x="0" y="0"/>
    <path id="settings_w-d" d="M178.389386,11 L177.838402,13.7757812 C176.919596,14.1171813 176.070018,14.5941445 175.323991,15.1958984 L172.610614,14.2763672 L170,18.7236328 L172.171139,20.5777341 C172.094158,21.0418846 172.044325,21.5144809 172.044325,22 C172.044325,22.4855191 172.094158,22.9581154 172.171139,23.4222659 L170,25.2763676 L172.610614,29.7236324 L175.323991,28.8041017 C176.070018,29.4058556 176.919596,29.8828189 177.838402,30.2242182 L178.389386,33 L183.610614,33 L184.161598,30.2242182 C185.080405,29.8828189 185.929982,29.4058556 186.676008,28.8041017 L189.389386,29.7236324 L192,25.2763676 L189.828861,23.4222659 C189.905842,22.9581154 189.955675,22.4855191 189.955675,22 C189.955675,21.5144809 189.905842,21.0418846 189.828861,20.5777341 L192,18.7236328 L189.389386,14.2763672 L186.676008,15.1958984 C185.929982,14.5941445 185.080405,14.1171813 184.161598,13.7757812 L183.610614,11 L178.389386,11 Z M180.5,17 C182.985125,17 185,19.014875 185,21.5 C185,23.985125 182.985125,26 180.5,26 C178.014875,26 176,23.985125 176,21.5 C176,19.014875 178.014875,17 180.5,17 Z"/>
    <filter id="settings_w-c" width="213.6%" height="213.6%" x="-56.8%" y="-52.3%" filterUnits="objectBoundingBox">
      <feOffset dy="1" in="SourceAlpha" result="shadowOffsetOuter1"/>
      <feGaussianBlur in="shadowOffsetOuter1" result="shadowBlurOuter1" stdDeviation="4"/>
      <feColorMatrix in="shadowBlurOuter1" values="0 0 0 0 0   0 0 0 0 0.454901961   0 0 0 0 0.71372549  0 0 0 0.24 0"/>
    </filter>
    <path id="settings_w-f" d="M111.760434,0.143062593 C113.253478,0.403303917 114,0.864595747 114,1.52693808 C114,2.52045159 113.34025,3.9415082 112.550342,4.5586435 C112.535508,4.57023289 112.51625,4.58418629 112.492568,4.6005037 L112.408251,4.65654793 C111.318512,5.36156931 105.264058,8.71959509 94.2448873,14.7306253 C92.9093232,15.6062253 92.0682959,16.7074905 91.7218055,18.0344209 C91.375315,19.3613514 91.6321659,20.7525971 92.4923581,22.2081582 L104.5973,44.3397187 L83.4501124,59.5919215 L23.7075125,119.418887 C16.5248449,126.283542 10.0091364,126.814737 4.16038713,121.012472 C-1.68836218,115.210208 -1.37040138,108.703884 5.11426951,101.493502 L53.144299,53.7466368 C55.1965391,51.5286708 57.4472639,49.1044895 59.8964735,46.4740929 C62.3456831,43.8436963 66.7106342,32.4628235 72.9913269,12.3314744 C74.1298663,7.17048879 75.9770857,3.73453184 78.5329852,2.02360356 C80.5209071,0.692881555 87.6628527,0.0179618214 99.9588219,-0.00115564444 L101.025384,-0.001188238 C104.262938,0.00353212044 107.841287,0.0516157309 111.760434,0.143062593 Z M14.6527914,105.386631 C11.9955074,105.386631 9.84135299,107.542368 9.84135299,110.201604 C9.84135299,112.860841 11.9955074,115.016578 14.6527914,115.016578 C17.3100755,115.016578 19.4642299,112.860841 19.4642299,110.201604 C19.4642299,107.542368 17.3100755,105.386631 14.6527914,105.386631 Z"/>
    <filter id="settings_w-e" width="143.9%" height="140%" x="-21.9%" y="-18.4%" filterUnits="objectBoundingBox">
      <feOffset dy="2" in="SourceAlpha" result="shadowOffsetOuter1"/>
      <feGaussianBlur in="shadowOffsetOuter1" result="shadowBlurOuter1" stdDeviation="8"/>
      <feColorMatrix in="shadowBlurOuter1" values="0 0 0 0 0.949019608   0 0 0 0 0.941176471   0 0 0 0 0.933333333  0 0 0 0.16 0"/>
    </filter>
    <path id="settings_w-h" d="M94.9552593,30.9909716 L114.955259,19.6958368 C113.823575,31.404683 109.766121,39.7380164 102.782897,44.6958368 C99.571371,38.8826834 96.9621585,34.314395 94.9552593,30.9909716 Z"/>
    <filter id="settings_w-g" width="345%" height="296%" x="-122.5%" y="-94%" filterUnits="objectBoundingBox">
      <feOffset dy="1" in="SourceAlpha" result="shadowOffsetOuter1"/>
      <feGaussianBlur in="shadowOffsetOuter1" result="shadowBlurOuter1" stdDeviation="8"/>
      <feColorMatrix in="shadowBlurOuter1" values="0 0 0 0 0.854901961   0 0 0 0 0.823529412   0 0 0 0 0.788235294  0 0 0 0.16 0"/>
    </filter>
    <path id="settings_w-j" d="M111.760434,0.143062593 C113.253478,0.403303917 114,0.864595747 114,1.52693808 C114,2.52045159 113.34025,3.9415082 112.550342,4.5586435 C112.535508,4.57023289 112.51625,4.58418629 112.492568,4.6005037 L112.408251,4.65654793 C111.318512,5.36156931 105.264058,8.71959509 94.2448873,14.7306253 C92.9093232,15.6062253 92.0682959,16.7074905 91.7218055,18.0344209 C91.375315,19.3613514 91.6321659,20.7525971 92.4923581,22.2081582 L104.5973,44.3397187 L83.4501124,59.5919215 L23.7075125,119.418887 C16.5248449,126.283542 10.0091364,126.814737 4.16038713,121.012472 C-1.68836218,115.210208 -1.37040138,108.703884 5.11426951,101.493502 L53.144299,53.7466368 C55.1965391,51.5286708 57.4472639,49.1044895 59.8964735,46.4740929 C62.3456831,43.8436963 66.7106342,32.4628235 72.9913269,12.3314744 C74.1298663,7.17048879 75.9770857,3.73453184 78.5329852,2.02360356 C80.5209071,0.692881555 87.6628527,0.0179618214 99.9588219,-0.00115564444 L101.025384,-0.001188238 C104.262938,0.00353212044 107.841287,0.0516157309 111.760434,0.143062593 Z M14.6527914,105.386631 C11.9955074,105.386631 9.84135299,107.542368 9.84135299,110.201604 C9.84135299,112.860841 11.9955074,115.016578 14.6527914,115.016578 C17.3100755,115.016578 19.4642299,112.860841 19.4642299,110.201604 C19.4642299,107.542368 17.3100755,105.386631 14.6527914,105.386631 Z"/>
    <filter id="settings_w-i" width="143.9%" height="140%" x="-21.9%" y="-18.4%" filterUnits="objectBoundingBox">
      <feOffset dy="2" in="SourceAlpha" result="shadowOffsetOuter1"/>
      <feGaussianBlur in="shadowOffsetOuter1" result="shadowBlurOuter1" stdDeviation="8"/>
      <feColorMatrix in="shadowBlurOuter1" values="0 0 0 0 0.949019608   0 0 0 0 0.941176471   0 0 0 0 0.933333333  0 0 0 0.16 0"/>
    </filter>
    <path id="settings_w-l" d="M139.634764,36 L138.607931,41.2992188 C136.89561,41.9509825 135.312306,42.8615486 133.921984,44.0103515 L128.865236,42.2548828 L124,50.7451172 L128.046213,54.2847651 C127.902749,55.1708706 127.809879,56.0730999 127.809879,57 C127.809879,57.9269001 127.902749,58.8291294 128.046213,59.7152349 L124,63.2548836 L128.865236,71.7451164 L133.921984,69.9896487 C135.312306,71.1384516 136.89561,72.0490179 138.607931,72.7007802 L139.634764,78 L149.365235,78 L150.39207,72.7007802 C152.10439,72.0490179 153.687695,71.1384516 155.078015,69.9896487 L160.134765,71.7451164 L165,63.2548836 L160.953787,59.7152349 C161.097251,58.8291294 161.190121,57.9269001 161.190121,57 C161.190121,56.0730999 161.097251,55.1708706 160.953787,54.2847651 L165,50.7451172 L160.134765,42.2548828 L155.078015,44.0103515 C153.687695,42.8615486 152.10439,41.9509825 150.39207,41.2992188 L149.365235,36 L139.634764,36 Z M143.754545,48.75 C148.488834,48.75 152.327273,52.4439375 152.327273,57 C152.327273,61.5560625 148.488834,65.25 143.754545,65.25 C139.020257,65.25 135.181818,61.5560625 135.181818,57 C135.181818,52.4439375 139.020257,48.75 143.754545,48.75 Z"/>
    <filter id="settings_w-k" width="161%" height="159.5%" x="-30.5%" y="-27.4%" filterUnits="objectBoundingBox">
      <feOffset dy="1" in="SourceAlpha" result="shadowOffsetOuter1"/>
      <feGaussianBlur in="shadowOffsetOuter1" result="shadowBlurOuter1" stdDeviation="4"/>
      <feColorMatrix in="shadowBlurOuter1" values="0 0 0 0 1   0 0 0 0 0.489558075   0 0 0 0 0.19366723  0 0 0 0.241537881 0"/>
    </filter>
    <path id="settings_w-n" d="M217.650865,33 L215.572152,43.5984375 C212.105747,44.901965 208.900521,46.7230972 206.085967,49.020703 L195.849135,45.5097655 L186,62.4902345 L194.191115,69.5695302 C193.900688,71.3417412 193.712681,73.1461998 193.712681,75 C193.712681,76.8538002 193.900688,78.6582588 194.191115,80.4304698 L186,87.5097672 L195.849135,104.490233 L206.085967,100.979297 C208.900521,103.276903 212.105747,105.098036 215.572152,106.40156 L217.650865,117 L237.349134,117 L239.427848,106.40156 C242.894254,105.098036 246.099479,103.276903 248.914031,100.979297 L259.150866,104.490233 L269,87.5097672 L260.808886,80.4304698 C261.099313,78.6582588 261.287318,76.8538002 261.287318,75 C261.287318,73.1461998 261.099313,71.3417412 260.808886,69.5695302 L269,62.4902345 L259.150866,45.5097655 L248.914031,49.020703 C246.099479,46.7230972 242.894254,44.901965 239.427848,43.5984375 L237.349134,33 L217.650865,33 Z M228.101449,58.2 C237.401659,58.2 244.942029,65.7222 244.942029,75 C244.942029,84.2778 237.401659,91.8 228.101449,91.8 C218.801239,91.8 211.26087,84.2778 211.26087,75 C211.26087,65.7222 218.801239,58.2 228.101449,58.2 Z"/>
    <filter id="settings_w-m" width="159%" height="158.3%" x="-29.5%" y="-28%" filterUnits="objectBoundingBox">
      <feOffset dy="1" in="SourceAlpha" result="shadowOffsetOuter1"/>
      <feGaussianBlur in="shadowOffsetOuter1" result="shadowBlurOuter1" stdDeviation="8"/>
      <feColorMatrix in="shadowBlurOuter1" values="0 0 0 0 0.218113542   0 0 0 0 0.203434616   0 0 0 0 0.203654945  0 0 0 0.16 0"/>
    </filter>
    <path id="settings_w-p" d="M111.760434,0.143062593 C113.253478,0.403303917 114,0.864595747 114,1.52693808 C114,2.52045159 113.34025,3.9415082 112.550342,4.5586435 C112.535508,4.57023289 112.51625,4.58418629 112.492568,4.6005037 L112.408251,4.65654793 C111.318512,5.36156931 105.264058,8.71959509 94.2448873,14.7306253 C92.9093232,15.6062253 92.0682959,16.7074905 91.7218055,18.0344209 C91.375315,19.3613514 91.6321659,20.7525971 92.4923581,22.2081582 L104.5973,44.3397187 L83.4501124,59.5919215 L23.7075125,119.418887 C16.5248449,126.283542 10.0091364,126.814737 4.16038713,121.012472 C-1.68836218,115.210208 -1.37040138,108.703884 5.11426951,101.493502 L53.144299,53.7466368 C55.1965391,51.5286708 57.4472639,49.1044895 59.8964735,46.4740929 C62.3456831,43.8436963 66.7106342,32.4628235 72.9913269,12.3314744 C74.1298663,7.17048879 75.9770857,3.73453184 78.5329852,2.02360356 C80.5209071,0.692881555 87.6628527,0.0179618214 99.9588219,-0.00115564444 L101.025384,-0.001188238 C104.262938,0.00353212044 107.841287,0.0516157309 111.760434,0.143062593 Z M14.6527914,105.386631 C11.9955074,105.386631 9.84135299,107.542368 9.84135299,110.201604 C9.84135299,112.860841 11.9955074,115.016578 14.6527914,115.016578 C17.3100755,115.016578 19.4642299,112.860841 19.4642299,110.201604 C19.4642299,107.542368 17.3100755,105.386631 14.6527914,105.386631 Z"/>
    <filter id="settings_w-o" width="143.9%" height="140%" x="-21.9%" y="-18.4%" filterUnits="objectBoundingBox">
      <feOffset dy="2" in="SourceAlpha" result="shadowOffsetOuter1"/>
      <feGaussianBlur in="shadowOffsetOuter1" result="shadowBlurOuter1" stdDeviation="8"/>
      <feColorMatrix in="shadowBlurOuter1" values="0 0 0 0 0.921568627   0 0 0 0 0.901960784   0 0 0 0 0.890196078  0 0 0 0.16 0"/>
    </filter>
  </defs>
  <g fill="none" fill-rule="evenodd">
    <mask id="settings_w-b" fill="#fff">
      <use xlink:href="#settings_w-a"/>
    </mask>
    <use fill="#FFF" xlink:href="#settings_w-a"/>
    <g fill-rule="nonzero" mask="url(#settings_w-b)">
      <use fill="#000" filter="url(#settings_w-c)" xlink:href="#settings_w-d"/>
      <use fill="#0074B6" xlink:href="#settings_w-d"/>
    </g>
    <rect width="41" height="273" x="-101.5" y="-92.5" stroke="#373434" mask="url(#settings_w-b)" rx="20.5" transform="rotate(-90 -81 44)"/>
    <rect width="41" height="286" x="432" y="-13" stroke="#373434" mask="url(#settings_w-b)" rx="20.5" transform="rotate(-90 452.5 130)"/>
    <rect width="331" height="234" x="340.5" y="-180.5" stroke="#489BCA" mask="url(#settings_w-b)"/>
    <g mask="url(#settings_w-b)">
      <g transform="rotate(-17 -299.776 -250.764)">
        <use fill="#000" filter="url(#settings_w-e)" xlink:href="#settings_w-f"/>
        <use fill="#EFEFEF" xlink:href="#settings_w-f"/>
      </g>
    </g>
    <g mask="url(#settings_w-b)" opacity="0">
      <g transform="rotate(-17 366.37 235.286)">
        <use fill="#000" filter="url(#settings_w-g)" xlink:href="#settings_w-h"/>
        <use fill="#E0E0E0" xlink:href="#settings_w-h"/>
        <use fill="#000" filter="url(#settings_w-i)" xlink:href="#settings_w-j"/>
        <use fill="#EFEFEF" xlink:href="#settings_w-j"/>
      </g>
    </g>
    <g fill-rule="nonzero" mask="url(#settings_w-b)">
      <use fill="#000" filter="url(#settings_w-k)" xlink:href="#settings_w-l"/>
      <use fill="#F0A202" xlink:href="#settings_w-l"/>
    </g>
    <g fill-rule="nonzero" mask="url(#settings_w-b)">
      <use fill="#000" filter="url(#settings_w-m)" xlink:href="#settings_w-n"/>
      <use fill="#373434" xlink:href="#settings_w-n"/>
    </g>
    <g fill-rule="nonzero" mask="url(#settings_w-b)">
      <g transform="rotate(-17 64.378 -1154.026)">
        <use fill="#000" filter="url(#settings_w-o)" xlink:href="#settings_w-p"/>
        <use fill="#E8E8E8" xlink:href="#settings_w-p"/>
      </g>
    </g>
  </g>
</svg>
