<?xml version="1.0" encoding="UTF-8"?>
<svg width="182px" height="84px" viewBox="0 0 182 84" version="1.1" xmlns="http://www.w3.org/2000/svg" xmlns:xlink="http://www.w3.org/1999/xlink">
    <title>Illustrations/Mobile/topics_bg</title>
    <defs>
        <rect id="path-1" x="0" y="0" width="182" height="84"></rect>
        <path d="M40,0.0213601105 L40,63.6587997 C56.6931443,64.5376102 70.0264776,69.6513436 80,79 C80,58.2978379 79.993481,37.7358002 79.9804429,17.3138871 C77.8407357,12.7143975 72.8604935,8.62417509 65.0397164,5.04321988 C57.2189393,1.46226467 48.8723672,-0.21168859 40,0.0213601105 Z" id="path-3"></path>
        <filter x="-62.5%" y="-29.1%" width="225.0%" height="163.3%" filterUnits="objectBoundingBox" id="filter-4">
            <feOffset dx="0" dy="2" in="SourceAlpha" result="shadowOffsetOuter1"></feOffset>
            <feGaussianBlur stdDeviation="8" in="shadowOffsetOuter1" result="shadowBlurOuter1"></feGaussianBlur>
            <feColorMatrix values="0 0 0 0 0.921568627   0 0 0 0 0.901960784   0 0 0 0 0.890196078  0 0 0 0.16 0" type="matrix" in="shadowBlurOuter1"></feColorMatrix>
        </filter>
        <path d="M0,0.0213601105 L0,63.6587997 C16.6931443,64.5376102 30.0264776,69.6513436 40,79 C40,58.2978379 39.993481,37.7358002 39.9804429,17.3138871 C37.8407357,12.7143975 32.8604935,8.62417509 25.0397164,5.04321988 C17.2189393,1.46226467 8.87236717,-0.21168859 0,0.0213601105 Z" id="path-5"></path>
        <filter x="-93.8%" y="-43.7%" width="287.5%" height="194.9%" filterUnits="objectBoundingBox" id="filter-6">
            <feOffset dx="0" dy="3" in="SourceAlpha" result="shadowOffsetOuter1"></feOffset>
            <feGaussianBlur stdDeviation="12" in="shadowOffsetOuter1" result="shadowBlurOuter1"></feGaussianBlur>
            <feColorMatrix values="0 0 0 0 0.219607843   0 0 0 0 0.203921569   0 0 0 0 0.203921569  0 0 0 0.1 0" type="matrix" in="shadowBlurOuter1"></feColorMatrix>
        </filter>
        <path d="M40,0.0213601105 L40,63.6587997 C56.6931443,64.5376102 70.0264776,69.6513436 80,79 C80,58.2978379 79.993481,37.7358002 79.9804429,17.3138871 C77.8407357,12.7143975 72.8604935,8.62417509 65.0397164,5.04321988 C57.2189393,1.46226467 48.8723672,-0.21168859 40,0.0213601105 Z" id="path-7"></path>
        <filter x="-62.5%" y="-29.1%" width="225.0%" height="163.3%" filterUnits="objectBoundingBox" id="filter-8">
            <feOffset dx="0" dy="2" in="SourceAlpha" result="shadowOffsetOuter1"></feOffset>
            <feGaussianBlur stdDeviation="8" in="shadowOffsetOuter1" result="shadowBlurOuter1"></feGaussianBlur>
            <feColorMatrix values="0 0 0 0 0.921568627   0 0 0 0 0.901960784   0 0 0 0 0.890196078  0 0 0 0.16 0" type="matrix" in="shadowBlurOuter1"></feColorMatrix>
        </filter>
        <path d="M0,0.0213601105 L0,63.6587997 C16.6931443,64.5376102 30.0264776,69.6513436 40,79 C40,58.2978379 39.993481,37.7358002 39.9804429,17.3138871 C37.8407357,12.7143975 32.8604935,8.62417509 25.0397164,5.04321988 C17.2189393,1.46226467 8.87236717,-0.21168859 0,0.0213601105 Z" id="path-9"></path>
        <filter x="-93.8%" y="-43.7%" width="287.5%" height="194.9%" filterUnits="objectBoundingBox" id="filter-10">
            <feOffset dx="0" dy="3" in="SourceAlpha" result="shadowOffsetOuter1"></feOffset>
            <feGaussianBlur stdDeviation="12" in="shadowOffsetOuter1" result="shadowBlurOuter1"></feGaussianBlur>
            <feColorMatrix values="0 0 0 0 0.219607843   0 0 0 0 0.203921569   0 0 0 0 0.203921569  0 0 0 0.1 0" type="matrix" in="shadowBlurOuter1"></feColorMatrix>
        </filter>
    </defs>
    <g id="Illustrations/Mobile/topics_bg" stroke="none" stroke-width="1" fill="none" fill-rule="evenodd">
        <mask id="mask-2" fill="white">
            <use xlink:href="#path-1"></use>
        </mask>
        <use id="bg" fill="#FFFFFF" xlink:href="#path-1"></use>
        <g id="Group-4" opacity="0.600000024" mask="url(#mask-2)">
            <g transform="translate(115.000000, 41.000000)">
                <g id="Path-11-Copy-3" fill-rule="nonzero" transform="translate(60.000000, 39.500000) scale(-1, 1) translate(-60.000000, -39.500000) ">
                    <use fill="black" fill-opacity="1" filter="url(#filter-4)" xlink:href="#path-3"></use>
                    <use fill="#E8E8E8" xlink:href="#path-3"></use>
                </g>
                <g id="Path-11-Copy-4">
                    <use fill="black" fill-opacity="1" filter="url(#filter-6)" xlink:href="#path-5"></use>
                    <use fill="#FFFFFF" fill-rule="evenodd" xlink:href="#path-5"></use>
                </g>
            </g>
        </g>
        <g id="Group-4-Copy" opacity="0.600000024" mask="url(#mask-2)">
            <g transform="translate(115.000000, -27.000000)">
                <g id="Path-11-Copy-3" fill-rule="nonzero" transform="translate(60.000000, 39.500000) scale(-1, 1) translate(-60.000000, -39.500000) ">
                    <use fill="black" fill-opacity="1" filter="url(#filter-8)" xlink:href="#path-7"></use>
                    <use fill="#E8E8E8" xlink:href="#path-7"></use>
                </g>
                <g id="Path-11-Copy-4">
                    <use fill="black" fill-opacity="1" filter="url(#filter-10)" xlink:href="#path-9"></use>
                    <use fill="#FFFFFF" fill-rule="evenodd" xlink:href="#path-9"></use>
                </g>
            </g>
        </g>
    </g>
</svg>